<?xml version="1.0" encoding="utf-8"?>
<!-- Generator: Adobe Illustrator 21.0.0, SVG Export Plug-In . SVG Version: 6.00 Build 0)  -->
<svg version="1.1"
	 id="svg2" xmlns:cc="http://creativecommons.org/ns#" xmlns:dc="http://purl.org/dc/elements/1.1/" xmlns:rdf="http://www.w3.org/1999/02/22-rdf-syntax-ns#" xmlns:svg="http://www.w3.org/2000/svg"
	 xmlns="http://www.w3.org/2000/svg" xmlns:xlink="http://www.w3.org/1999/xlink" x="0px" y="0px" width="670px" height="336px"
	 viewBox="0 0 670 336" style="enable-background:new 0 0 670 336;" xml:space="preserve">
<style type="text/css">
	.st0{display:none;fill:#F4F4F4;}
	.st1{clip-path:url(#SVGID_2_);}
	.st2{fill:#F4F4F4;}
	.st3{fill:none;stroke:#8D9CA9;stroke-width:0.3661;stroke-linecap:round;stroke-linejoin:round;stroke-miterlimit:10;}
	.st4{fill:#02A3D6;}
	.st5{fill:#8D9CA9;}
	.st6{fill:#DEE1E0;}
	.st7{fill:#F4F4F4;stroke:#8D9CA9;stroke-width:0.3661;stroke-linecap:round;stroke-linejoin:round;stroke-miterlimit:10;}
	.st8{fill:#FFFFFF;}
	.st9{clip-path:url(#SVGID_4_);}
	.st10{fill:#DDE1E0;}
	.st11{fill:#FFFFFF;stroke:#DEE1E0;stroke-width:0.1855;stroke-linecap:round;stroke-linejoin:round;stroke-miterlimit:10;}
	.st12{fill:#67757F;}
	.st13{fill:#394859;}
	.st14{fill:none;stroke:#DEE1E0;stroke-width:0.1855;stroke-linecap:round;stroke-linejoin:round;stroke-miterlimit:10;}
	.st15{clip-path:url(#SVGID_6_);}
	.st16{fill:none;stroke:#02A3D6;stroke-width:0.3661;stroke-miterlimit:10;}
	.st17{fill:#39485A;}
	.st18{fill:none;stroke:#39485A;stroke-width:0.3661;stroke-miterlimit:10;}
	.st19{fill:#FF7352;}
	.st20{fill:none;stroke:#FF7352;stroke-width:0.3661;stroke-miterlimit:10;}
	.st21{fill:none;stroke:#C0C8D1;stroke-width:0.4842;stroke-miterlimit:10;}
	.st22{clip-path:url(#SVGID_8_);}
	.st23{fill:none;stroke:#8D9CA9;stroke-width:0.4358;stroke-linecap:round;stroke-linejoin:round;stroke-miterlimit:10;}
	.st24{fill:#FF7352;stroke:#FF7352;stroke-width:0.3661;stroke-miterlimit:10;}
	.st25{fill:#02A3D6;stroke:#02A3D6;stroke-width:0.3661;stroke-miterlimit:10;}
	.st26{fill:#C5ECFF;}
	.st27{fill:#76BDF2;}
	.st28{fill:#C0C8D1;}
	.st29{fill:#E9BB68;}
	.st30{fill:#F4F4F4;stroke:#8D9CA9;stroke-width:0.4358;stroke-linecap:round;stroke-linejoin:round;stroke-miterlimit:10;}
	.st31{fill:#DEE1E0;stroke:#8D9CA9;stroke-width:0.4358;stroke-linecap:round;stroke-linejoin:round;stroke-miterlimit:10;}
	.st32{fill:#DD4B2F;}
	.st33{fill:#0C2A31;}
	.st34{fill:none;stroke:#394859;stroke-width:1.8508;stroke-linecap:round;stroke-linejoin:round;stroke-miterlimit:10;}
</style>
<g id="g10" transform="matrix(1.3333333,0,0,-1.3333333,0,872)">
	<path id="path12" class="st0" d="M410.6,403.1H88.1v300.3h322.5V403.1z"/>
	<g id="g14">
		<g>
			<g>
				<defs>
					<rect id="SVGID_1_" x="-57.7" y="270.5" width="617.8" height="563"/>
				</defs>
				<clipPath id="SVGID_2_">
					<use xlink:href="#SVGID_1_"  style="overflow:visible;"/>
				</clipPath>
				<g id="g16" class="st1">
					<g id="g22" transform="translate(363.752,398.7427)">
						<path id="path24" class="st2" d="M-110.2,188h-100.3c-1,0-1.7,0.8-1.7,1.7v62.8c0,1,0.8,1.7,1.7,1.7h100.3
							c1,0,1.7-0.8,1.7-1.7v-62.8C-108.4,188.7-109.2,188-110.2,188"/>
					</g>
					<g id="g26" transform="translate(363.752,398.7427)">
						<path id="path28" class="st3" d="M-110.2,188h-100.3c-1,0-1.7,0.8-1.7,1.7v62.8c0,1,0.8,1.7,1.7,1.7h100.3
							c1,0,1.7-0.8,1.7-1.7v-62.8C-108.4,188.7-109.2,188-110.2,188z"/>
					</g>
					<g id="g30" transform="translate(240.8745,526.9023)">
						<path id="path32" class="st4" d="M-46.7,121.9c0.1,0,0.1,0,0.2,0c0.1,0,0.1,0,0.2,0c0.1,0,0.1,0,0.2,0c0.1,0,0.1,0,0.2,0
							l2.5-4.3v4.3c0.1,0,0.1,0,0.2,0c0.1,0,0.1,0,0.2,0c0.1,0,0.1,0,0.2,0c0.1,0,0.1,0,0.2,0v-5.7c-0.1,0-0.1,0-0.2,0
							c-0.1,0-0.1,0-0.2,0c-0.1,0-0.1,0-0.2,0c-0.1,0-0.1,0-0.2,0l-2.5,4.2v-4.2c-0.1,0-0.1,0-0.2,0c-0.1,0-0.1,0-0.2,0
							c-0.1,0-0.1,0-0.2,0c-0.1,0-0.1,0-0.2,0V121.9z"/>
					</g>
					<g id="g34" transform="translate(252.0083,526.9023)">
						<path id="path36" class="st4" d="M-52.5,121.9h3.2c0-0.1,0-0.2,0-0.3c0-0.1,0-0.1,0-0.2s0-0.1,0-0.2h-2.3v-1.6h1.9
							c0-0.1,0-0.1,0-0.2c0-0.1,0-0.1,0-0.2s0-0.1,0-0.2c0-0.1,0-0.1,0-0.2h-1.9v-1.9h2.4c0-0.1,0-0.2,0-0.3c0-0.1,0-0.1,0-0.2
							s0-0.1,0-0.2h-3.2V121.9z"/>
					</g>
					<g id="g38" transform="translate(259.7861,526.9023)">
						<path id="path40" class="st4" d="M-56.5,121.9c0.1,0,0.1,0,0.2,0c0.1,0,0.2,0,0.3,0s0.1,0,0.3,0c0.1,0,0.1,0,0.2,0l1-4.8
							l1.2,4.8c0.1,0,0.1,0,0.2,0c0.1,0,0.1,0,0.2,0c0.1,0,0.1,0,0.2,0c0.1,0,0.1,0,0.2,0l1.2-4.8l1,4.8c0.1,0,0.1,0,0.2,0
							c0.1,0,0.1,0,0.2,0c0.1,0,0.1,0,0.2,0c0.1,0,0.1,0,0.2,0l-1.4-5.7c-0.1,0-0.1,0-0.2,0c-0.1,0-0.2,0-0.3,0s-0.1,0-0.3,0
							c-0.1,0-0.2,0-0.3,0l-1.1,4.4l-1.2-4.4c-0.1,0-0.1,0-0.3,0c-0.1,0-0.2,0-0.3,0s-0.1,0-0.2,0c-0.1,0-0.1,0-0.2,0L-56.5,121.9z"
							/>
					</g>
					<g id="g42" transform="translate(275.5708,516.9141)">
						<path id="path44" class="st4" d="M-64.6,127.1c0.2-0.1,0.4-0.1,0.5-0.2c0.2-0.1,0.5-0.1,0.7-0.1c0.5,0,0.8,0.1,1,0.3
							c0.2,0.2,0.3,0.4,0.3,0.7c0,0.1,0,0.3-0.1,0.4c-0.1,0.1-0.1,0.2-0.2,0.3c-0.1,0.1-0.2,0.1-0.3,0.2c-0.1,0.1-0.3,0.1-0.5,0.2
							l-0.5,0.2c-0.1,0.1-0.3,0.1-0.5,0.2c-0.1,0.1-0.3,0.2-0.3,0.3c-0.1,0.1-0.2,0.3-0.2,0.4c-0.1,0.1-0.1,0.3-0.1,0.5
							c0,0.5,0.2,0.8,0.5,1.2c0.3,0.3,0.8,0.4,1.4,0.4c0.3,0,0.5,0,0.7-0.1c0.3-0.1,0.5-0.1,0.6-0.1c0-0.2-0.1-0.5-0.2-0.6
							c-0.1,0.1-0.3,0.1-0.5,0.1c-0.2,0.1-0.4,0.1-0.6,0.1c-0.3,0-0.6-0.1-0.8-0.2c-0.2-0.1-0.3-0.3-0.3-0.6c0-0.1,0-0.2,0.1-0.3
							c0.1-0.1,0.1-0.2,0.2-0.3c0.1-0.1,0.2-0.1,0.3-0.2c0.1-0.1,0.2-0.1,0.3-0.1l0.5-0.2c0.2-0.1,0.4-0.2,0.6-0.3
							c0.2-0.1,0.3-0.2,0.5-0.3c0.1-0.1,0.2-0.3,0.3-0.5c0.1-0.2,0.1-0.4,0.1-0.6c0-0.5-0.2-1-0.6-1.3c-0.4-0.3-0.9-0.5-1.6-0.5
							c-0.2,0-0.3,0-0.5,0c-0.1,0-0.3,0-0.4,0.1c-0.1,0-0.2,0.1-0.3,0.1s-0.2,0.1-0.3,0.1c0,0.1,0.1,0.3,0.1,0.4
							C-64.8,126.8-64.7,126.9-64.6,127.1"/>
					</g>
					<g id="g46" transform="translate(169.373,491.0259)">
						<path id="path48" class="st5" d="M-9.9,140.4c0.1,0,0.1,0,0.2,0c0.1,0,0.1,0,0.3,0c0.1,0,0.3,0,0.4,0.1c0.1,0,0.2,0.1,0.3,0.1
							c0.1,0.1,0.1,0.1,0.2,0.2c0.1,0.1,0.1,0.2,0.1,0.3s0,0.3-0.1,0.3c-0.1,0.1-0.1,0.2-0.2,0.2c-0.1,0.1-0.2,0.1-0.3,0.1
							s-0.3,0.1-0.4,0.1h-0.5L-9.9,140.4L-9.9,140.4z M-9.5,142.3c0.3,0,0.5,0.1,0.6,0.2c0.1,0.1,0.2,0.3,0.2,0.5
							c0,0.2-0.1,0.4-0.2,0.5c-0.1,0.1-0.3,0.1-0.6,0.1c-0.1,0-0.1,0-0.2,0c-0.1,0-0.1,0-0.2,0v-1.2L-9.5,142.3L-9.5,142.3z
							 M-10.5,143.9c0.1,0,0.2,0.1,0.4,0.1c0.2,0,0.3,0,0.5,0c0.2,0,0.4,0,0.6-0.1c0.2-0.1,0.3-0.1,0.5-0.2c0.1-0.1,0.2-0.2,0.3-0.3
							c0.1-0.1,0.1-0.3,0.1-0.5c0-0.1,0-0.2-0.1-0.3s-0.1-0.2-0.1-0.3c-0.1-0.1-0.1-0.1-0.2-0.2c-0.1-0.1-0.1-0.1-0.3-0.1
							c0.1,0,0.2-0.1,0.3-0.1c0.1-0.1,0.2-0.1,0.3-0.2c0.1-0.1,0.1-0.2,0.2-0.3c0.1-0.1,0.1-0.3,0.1-0.5c0-0.2-0.1-0.4-0.1-0.5
							c-0.1-0.1-0.2-0.3-0.3-0.4c-0.1-0.1-0.3-0.1-0.5-0.2c-0.2-0.1-0.4-0.1-0.6-0.1c-0.1,0-0.3,0-0.5,0s-0.3,0-0.5,0.1L-10.5,143.9
							L-10.5,143.9z"/>
					</g>
					<g id="g50" transform="translate(174.8701,495.9458)">
						<path id="path52" class="st5" d="M-12.7,137.9c0.1,0,0.1,0,0.1,0c0.1,0,0.1,0,0.1,0s0.1,0,0.1,0c0.1,0,0.1,0,0.1,0
							c0-0.1,0-0.1,0.1-0.2c0-0.1,0-0.2,0-0.3c0.1,0.1,0.2,0.3,0.3,0.3c0.1,0.1,0.3,0.1,0.5,0.1h0.1h0.1c0-0.1,0-0.1,0-0.1
							s0-0.1,0-0.1c0-0.1,0-0.1,0-0.1s0-0.1,0-0.1h-0.1h-0.1c-0.1,0-0.2,0-0.3-0.1c-0.1,0-0.2-0.1-0.3-0.1c-0.1-0.1-0.1-0.2-0.2-0.3
							c-0.1-0.1-0.1-0.3-0.1-0.5v-1.4c-0.1,0-0.1,0-0.1,0c-0.1,0-0.1,0-0.1,0c-0.1,0-0.1,0-0.1,0s-0.1,0-0.1,0v2.8H-12.7z"/>
					</g>
					<g id="g54" transform="translate(182.6353,493.5991)">
						<path id="path56" class="st5" d="M-16.7,139.1c0,0.1,0,0.2-0.1,0.3c0,0.1-0.1,0.2-0.1,0.3c-0.1,0.1-0.1,0.1-0.2,0.2
							c-0.1,0.1-0.2,0.1-0.3,0.1c-0.2,0-0.4-0.1-0.5-0.2c-0.1-0.1-0.2-0.3-0.2-0.6L-16.7,139.1L-16.7,139.1z M-18.1,138.7
							c0-0.3,0.1-0.5,0.3-0.6c0.1-0.1,0.4-0.2,0.6-0.2c0.3,0,0.5,0.1,0.8,0.1c0-0.1,0.1-0.1,0.1-0.2c0-0.1,0-0.1,0.1-0.3
							c-0.1-0.1-0.3-0.1-0.4-0.1c-0.1,0-0.3-0.1-0.5-0.1c-0.3,0-0.5,0.1-0.6,0.1c-0.2,0.1-0.3,0.2-0.5,0.3s-0.2,0.3-0.3,0.5
							c-0.1,0.2-0.1,0.4-0.1,0.6c0,0.2,0,0.4,0.1,0.6c0.1,0.2,0.1,0.3,0.3,0.5c0.1,0.1,0.3,0.3,0.4,0.3c0.2,0.1,0.4,0.1,0.6,0.1
							s0.4-0.1,0.5-0.1c0.1-0.1,0.3-0.1,0.4-0.3c0.1-0.1,0.2-0.3,0.2-0.4c0.1-0.1,0.1-0.3,0.1-0.5c0-0.1,0-0.1,0-0.2s0-0.1,0-0.1
							H-18.1L-18.1,138.7z"/>
					</g>
					<g id="g58" transform="translate(188.292,492.8623)">
						<path id="path60" class="st5" d="M-19.6,139.4c-0.1,0-0.1,0-0.2,0s-0.1,0-0.2,0c-0.3,0-0.4-0.1-0.5-0.1
							c-0.1-0.1-0.2-0.2-0.2-0.4c0-0.1,0-0.2,0.1-0.3s0.1-0.1,0.1-0.1c0.1-0.1,0.1-0.1,0.2-0.1c0.1,0,0.1,0,0.2,0c0.1,0,0.2,0,0.3,0
							s0.2,0,0.3,0.1L-19.6,139.4L-19.6,139.4z M-19.6,140c0,0.2-0.1,0.4-0.2,0.5c-0.1,0.1-0.3,0.1-0.5,0.1c-0.1,0-0.3,0-0.4,0
							c-0.1,0-0.2-0.1-0.3-0.1c-0.1,0.1-0.1,0.3-0.1,0.5c0.1,0.1,0.3,0.1,0.4,0.1c0.1,0,0.3,0.1,0.5,0.1c0.4,0,0.6-0.1,0.8-0.3
							c0.2-0.2,0.3-0.5,0.3-0.8v-1.7c-0.1,0-0.3-0.1-0.5-0.1c-0.2,0-0.4-0.1-0.6-0.1c-0.2,0-0.3,0-0.5,0.1c-0.1,0.1-0.3,0.1-0.4,0.1
							c-0.1,0.1-0.2,0.2-0.3,0.3c-0.1,0.1-0.1,0.3-0.1,0.4s0.1,0.3,0.1,0.4c0.1,0.1,0.1,0.2,0.3,0.3c0.1,0.1,0.3,0.1,0.4,0.2
							c0.1,0.1,0.3,0.1,0.5,0.1c0.1,0,0.2,0,0.3,0s0.1,0,0.2,0v0H-19.6z"/>
					</g>
					<g id="g62" transform="translate(192.4644,493.1455)">
						<path id="path64" class="st5" d="M-21.8,139.3l0.9,1.4c0.1,0,0.1,0,0.1,0s0.1,0,0.1,0c0.1,0,0.1,0,0.1,0c0.1,0,0.1,0,0.1,0
							l-0.9-1.3l1-1.5c-0.1,0-0.1,0-0.1,0c-0.1,0-0.1,0-0.1,0c-0.1,0-0.1,0-0.1,0c-0.1,0-0.1,0-0.1,0L-21.8,139.3z M-22.5,141.9
							c0.1,0,0.1,0,0.1,0s0.1,0,0.1,0c0.1,0,0.1,0,0.1,0c0.1,0,0.1,0,0.1,0v-4.1c-0.1,0-0.1,0-0.1,0c-0.1,0-0.1,0-0.1,0
							c-0.1,0-0.1,0-0.1,0s-0.1,0-0.1,0V141.9z"/>
					</g>
					<g id="g66" transform="translate(196.998,497.2261)">
						<path id="path68" class="st5" d="M-24.2,137.2c0,0.1,0,0.1,0,0.1s0,0.1,0,0.1c0,0.1,0,0.1,0,0.1s0,0.1,0,0.1
							c0.1,0,0.1,0,0.1,0c0.1,0,0.1,0,0.1,0c0.1,0,0.1,0,0.1,0c0.1,0,0.1,0,0.1,0c0-0.1,0-0.1,0-0.1s0-0.1,0-0.1c0-0.1,0-0.1,0-0.1
							s0-0.1,0-0.1c-0.1,0-0.1,0-0.1,0c-0.1,0-0.1,0-0.1,0c-0.1,0-0.1,0-0.1,0C-24,137.2-24.1,137.2-24.2,137.2 M-24,136.2h-0.4
							c0,0,0,0.1,0,0.1s0,0.1,0,0.1s0,0.1,0,0.1s0,0.1,0,0.1h0.9v-2.8c-0.1,0-0.1,0-0.1,0s-0.1,0-0.1,0c-0.1,0-0.1,0-0.1,0
							c-0.1,0-0.1,0-0.1,0L-24,136.2L-24,136.2z"/>
					</g>
					<g id="g70" transform="translate(200.1714,495.9458)">
						<path id="path72" class="st5" d="M-25.7,137.9c0.1,0,0.1,0,0.1,0c0.1,0,0.1,0,0.1,0c0.1,0,0.1,0,0.1,0s0.1,0,0.1,0
							c0-0.1,0-0.1,0.1-0.2c0-0.1,0-0.2,0-0.3c0.1,0.1,0.1,0.1,0.1,0.2c0.1,0.1,0.1,0.1,0.2,0.2c0.1,0.1,0.1,0.1,0.3,0.1
							c0.1,0,0.2,0.1,0.3,0.1c0.3,0,0.6-0.1,0.7-0.3c0.1-0.2,0.3-0.5,0.3-0.8v-1.8c-0.1,0-0.1,0-0.1,0c-0.1,0-0.1,0-0.1,0
							c-0.1,0-0.1,0-0.1,0s-0.1,0-0.1,0v1.6c0,0.3-0.1,0.5-0.1,0.6c-0.1,0.1-0.2,0.2-0.4,0.2c-0.1,0-0.2,0-0.3-0.1
							c-0.1-0.1-0.2-0.1-0.3-0.2c-0.1-0.1-0.1-0.2-0.2-0.3c-0.1-0.1-0.1-0.3-0.1-0.5v-1.4c-0.1,0-0.1,0-0.1,0c-0.1,0-0.1,0-0.1,0
							c-0.1,0-0.1,0-0.1,0s-0.1,0-0.1,0L-25.7,137.9L-25.7,137.9z"/>
					</g>
					<g id="g74" transform="translate(208.832,492.8164)">
						<path id="path76" class="st5" d="M-30.2,139.5c0.2,0,0.3,0.1,0.5,0.2c0.1,0.1,0.1,0.3,0.1,0.5s-0.1,0.3-0.1,0.5
							s-0.3,0.2-0.5,0.2c-0.2,0-0.3-0.1-0.5-0.2c-0.1-0.1-0.1-0.3-0.1-0.5s0.1-0.3,0.1-0.5C-30.6,139.5-30.4,139.5-30.2,139.5
							 M-30.5,138.1c-0.2,0-0.3-0.1-0.4-0.1c-0.1-0.1-0.1-0.2-0.1-0.3c0-0.1,0-0.1,0.1-0.2s0.1-0.1,0.1-0.1c0.1,0,0.1-0.1,0.2-0.1
							c0.1,0,0.2,0,0.3,0c0.3,0,0.5,0.1,0.7,0.1c0.2,0.1,0.3,0.2,0.3,0.4c0,0.1-0.1,0.2-0.1,0.3s-0.2,0.1-0.4,0.1H-30.5z
							 M-29.7,138.6c0.3,0,0.6-0.1,0.7-0.2s0.2-0.3,0.2-0.5c0-0.1-0.1-0.3-0.1-0.4s-0.2-0.2-0.3-0.3c-0.1-0.1-0.3-0.1-0.5-0.2
							c-0.2-0.1-0.4-0.1-0.6-0.1c-0.4,0-0.6,0.1-0.8,0.2c-0.2,0.1-0.3,0.3-0.3,0.6c0,0.1,0.1,0.3,0.1,0.4c0.1,0.1,0.2,0.2,0.3,0.3
							c-0.1,0.1-0.1,0.1-0.2,0.2c-0.1,0.1-0.1,0.1-0.1,0.3c0,0.1,0,0.3,0.1,0.3c0.1,0.1,0.1,0.2,0.3,0.3c-0.1,0.1-0.2,0.2-0.3,0.3
							c-0.1,0.1-0.1,0.3-0.1,0.5c0,0.1,0,0.3,0.1,0.4c0.1,0.1,0.1,0.3,0.2,0.3c0.1,0.1,0.2,0.1,0.4,0.2c0.1,0.1,0.3,0.1,0.5,0.1
							c0.2,0,0.3,0,0.5-0.1c0.1-0.1,0.3-0.1,0.3-0.2c0.1,0.1,0.2,0.1,0.3,0.1c0.1,0.1,0.3,0.1,0.4,0.1c0-0.1,0-0.1,0-0.3
							c0-0.1,0-0.1,0-0.1s0-0.1,0-0.1h-0.5c0.1-0.1,0.1-0.1,0.1-0.2s0.1-0.1,0.1-0.3s0-0.3-0.1-0.4c-0.1-0.1-0.1-0.2-0.3-0.3
							c-0.1-0.1-0.2-0.1-0.4-0.2c-0.1-0.1-0.3-0.1-0.5-0.1s-0.3,0-0.4,0.1c-0.1,0-0.1-0.1-0.1-0.1c-0.1-0.1-0.1-0.1-0.1-0.2
							s0-0.1,0.1-0.2s0.1-0.1,0.3-0.1L-29.7,138.6z"/>
					</g>
					<g id="g78" transform="translate(215.7695,498.2808)">
						<path id="path80" class="st5" d="M-33.8,136.7c0.1,0,0.1,0,0.1,0s0.1,0,0.1,0s0.1,0,0.1,0c0.1,0,0.1,0,0.1,0l1.7-3v3
							c0.1,0,0.1,0,0.1,0s0.1,0,0.1,0c0.1,0,0.1,0,0.1,0c0.1,0,0.1,0,0.1,0v-3.9c-0.1,0-0.1,0-0.1,0c-0.1,0-0.1,0-0.1,0
							c-0.1,0-0.1,0-0.1,0s-0.1,0-0.1,0l-1.7,3v-3c-0.1,0-0.1,0-0.1,0c-0.1,0-0.1,0-0.1,0s-0.1,0-0.1,0s-0.1,0-0.1,0V136.7z"/>
					</g>
					<g id="g82" transform="translate(227.1055,493.5991)">
						<path id="path84" class="st5" d="M-39.6,139.1c0,0.1,0,0.2-0.1,0.3c0,0.1-0.1,0.2-0.1,0.3s-0.1,0.1-0.2,0.2
							c-0.1,0.1-0.2,0.1-0.3,0.1c-0.2,0-0.4-0.1-0.5-0.2c-0.1-0.1-0.2-0.3-0.2-0.6L-39.6,139.1L-39.6,139.1z M-41.1,138.7
							c0-0.3,0.1-0.5,0.3-0.6c0.1-0.1,0.4-0.2,0.6-0.2c0.3,0,0.5,0.1,0.8,0.1c0-0.1,0.1-0.1,0.1-0.2c0-0.1,0-0.1,0.1-0.3
							c-0.1-0.1-0.3-0.1-0.4-0.1c-0.1,0-0.3-0.1-0.5-0.1c-0.3,0-0.5,0.1-0.6,0.1c-0.2,0.1-0.3,0.2-0.5,0.3c-0.1,0.1-0.2,0.3-0.3,0.5
							c-0.1,0.2-0.1,0.4-0.1,0.6c0,0.2,0,0.4,0.1,0.6c0.1,0.2,0.1,0.3,0.3,0.5c0.1,0.1,0.3,0.3,0.4,0.3c0.2,0.1,0.4,0.1,0.6,0.1
							s0.4-0.1,0.5-0.1c0.1-0.1,0.3-0.1,0.4-0.3c0.1-0.1,0.2-0.3,0.2-0.4c0.1-0.1,0.1-0.3,0.1-0.5c0-0.1,0-0.1,0-0.2s0-0.1,0-0.1
							H-41.1L-41.1,138.7z"/>
					</g>
					<g id="g86" transform="translate(228.8633,495.9458)">
						<path id="path88" class="st5" d="M-40.6,137.9c0.1,0,0.1,0,0.1,0c0.1,0,0.1,0,0.1,0c0.1,0,0.1,0,0.1,0c0.1,0,0.1,0,0.1,0
							l0.6-2.3l0.6,2.3c0.1,0,0.1,0,0.1,0s0.1,0,0.1,0c0.1,0,0.1,0,0.1,0c0.1,0,0.1,0,0.1,0l0.6-2.3l0.6,2.3c0.1,0,0.1,0,0.1,0
							s0.1,0,0.1,0c0.1,0,0.1,0,0.1,0s0.1,0,0.1,0l-0.8-2.8c-0.1,0-0.1,0-0.1,0c-0.1,0-0.1,0-0.1,0s-0.1,0-0.1,0s-0.1,0-0.1,0
							l-0.6,2.1l-0.6-2.1c-0.1,0-0.1,0-0.1,0c-0.1,0-0.1,0-0.1,0s-0.1,0-0.1,0s-0.1,0-0.1,0L-40.6,137.9z"/>
					</g>
					<g id="g90" transform="translate(238.2026,491.1846)">
						<path id="path92" class="st5" d="M-45.4,140.3c0.1-0.1,0.2-0.1,0.3-0.1c0.1,0,0.3-0.1,0.3-0.1s0.2,0,0.3,0
							c0.1,0,0.1,0.1,0.2,0.1c0.1,0.1,0.1,0.1,0.1,0.1c0.1,0.1,0.1,0.1,0.1,0.2s0,0.1-0.1,0.2c0,0.1-0.1,0.1-0.1,0.1
							s-0.1,0.1-0.1,0.1c-0.1,0-0.1,0.1-0.2,0.1l-0.2,0.1c-0.3,0.1-0.4,0.2-0.5,0.3c-0.1,0.1-0.1,0.3-0.1,0.5c0,0.3,0.1,0.5,0.3,0.6
							s0.5,0.2,0.8,0.2c0.1,0,0.3,0,0.5-0.1c0.1,0,0.3-0.1,0.4-0.1c0-0.1,0-0.1-0.1-0.2c0-0.1-0.1-0.1-0.1-0.2
							c-0.1,0-0.2,0.1-0.3,0.1c-0.1,0-0.3,0.1-0.4,0.1c-0.1,0-0.3,0-0.4-0.1c-0.1-0.1-0.1-0.1-0.1-0.3c0-0.1,0-0.1,0.1-0.1
							c0-0.1,0.1-0.1,0.1-0.1c0.1,0,0.1-0.1,0.1-0.1c0.1,0,0.1-0.1,0.2-0.1l0.3-0.1c0.1,0,0.2-0.1,0.3-0.1c0.1-0.1,0.1-0.1,0.2-0.1
							c0.1-0.1,0.1-0.1,0.1-0.2c0.1-0.1,0.1-0.2,0.1-0.3s0-0.3-0.1-0.4s-0.1-0.2-0.3-0.3c-0.1-0.1-0.2-0.1-0.4-0.2
							c-0.1-0.1-0.3-0.1-0.5-0.1c-0.2,0-0.3,0-0.5,0.1c-0.1,0-0.3,0.1-0.4,0.1c0,0.1,0,0.1,0.1,0.2
							C-45.5,140.2-45.4,140.2-45.4,140.3"/>
					</g>
					<g id="g94" transform="translate(268.561,498.2808)">
						<path id="path96" class="st5" d="M-61,136.7c0.1,0,0.1,0,0.1,0s0.1,0,0.1,0s0.1,0,0.1,0c0.1,0,0.1,0,0.1,0v-3.5h1.5
							c0-0.1,0-0.1,0-0.1s0-0.1,0-0.1s0-0.2,0-0.3h-2.1L-61,136.7L-61,136.7z"/>
					</g>
					<g id="g98" transform="translate(277.1538,492.8623)">
						<path id="path100" class="st5" d="M-65.5,139.4c-0.1,0-0.1,0-0.2,0s-0.1,0-0.2,0c-0.3,0-0.4-0.1-0.5-0.1s-0.2-0.2-0.2-0.4
							c0-0.1,0-0.2,0.1-0.3s0.1-0.1,0.1-0.1c0.1-0.1,0.1-0.1,0.2-0.1c0.1,0,0.1,0,0.2,0c0.1,0,0.2,0,0.3,0s0.2,0,0.3,0.1V139.4
							L-65.5,139.4z M-65.5,140c0,0.2-0.1,0.4-0.2,0.5s-0.3,0.1-0.5,0.1c-0.1,0-0.3,0-0.4,0c-0.1,0-0.2-0.1-0.3-0.1
							c-0.1,0.1-0.1,0.3-0.1,0.5c0.1,0.1,0.3,0.1,0.4,0.1s0.3,0.1,0.5,0.1c0.4,0,0.6-0.1,0.8-0.3c0.2-0.2,0.3-0.5,0.3-0.8v-1.7
							c-0.1,0-0.3-0.1-0.5-0.1s-0.4-0.1-0.6-0.1c-0.2,0-0.3,0-0.5,0.1c-0.1,0.1-0.3,0.1-0.4,0.1c-0.1,0.1-0.2,0.2-0.3,0.3
							c-0.1,0.1-0.1,0.3-0.1,0.4s0.1,0.3,0.1,0.4c0.1,0.1,0.1,0.2,0.3,0.3c0.1,0.1,0.3,0.1,0.4,0.2c0.1,0.1,0.3,0.1,0.5,0.1
							s0.2,0,0.3,0s0.1,0,0.2,0v0H-65.5z"/>
					</g>
					<g id="g102" transform="translate(280.1577,495.0498)">
						<path id="path104" class="st5" d="M-67,138.3h-0.5v0.1l1,1h0.1v-0.7h0.7c0-0.1,0-0.1,0-0.2s0-0.1,0-0.1s0-0.1,0-0.1h-0.7V137
							c0-0.1,0-0.3,0-0.4c0-0.1,0.1-0.2,0.1-0.2c0-0.1,0.1-0.1,0.1-0.1c0.1,0,0.1,0,0.2,0s0.1,0,0.2,0c0.1,0,0.1,0,0.1,0
							c0-0.1,0.1-0.1,0.1-0.3c0-0.1,0-0.1,0-0.2c-0.1,0-0.1,0-0.3-0.1c-0.1,0-0.2,0-0.3,0c-0.3,0-0.5,0.1-0.6,0.2
							c-0.1,0.1-0.2,0.3-0.2,0.6V138.3L-67,138.3z"/>
					</g>
					<g id="g106" transform="translate(287.7183,493.5991)">
						<path id="path108" class="st5" d="M-70.9,139.1c0,0.1,0,0.2-0.1,0.3c0,0.1-0.1,0.2-0.1,0.3s-0.1,0.1-0.2,0.2
							c-0.1,0.1-0.2,0.1-0.3,0.1c-0.2,0-0.4-0.1-0.5-0.2c-0.1-0.1-0.2-0.3-0.2-0.6L-70.9,139.1L-70.9,139.1z M-72.3,138.7
							c0-0.3,0.1-0.5,0.3-0.6c0.1-0.1,0.4-0.2,0.6-0.2c0.3,0,0.5,0.1,0.8,0.1c0-0.1,0.1-0.1,0.1-0.2c0-0.1,0-0.1,0.1-0.3
							c-0.1-0.1-0.3-0.1-0.4-0.1c-0.1,0-0.3-0.1-0.5-0.1c-0.3,0-0.5,0.1-0.6,0.1s-0.3,0.2-0.5,0.3s-0.2,0.3-0.3,0.5
							c-0.1,0.2-0.1,0.4-0.1,0.6c0,0.2,0,0.4,0.1,0.6c0.1,0.2,0.1,0.3,0.3,0.5c0.1,0.1,0.3,0.3,0.4,0.3c0.2,0.1,0.4,0.1,0.6,0.1
							c0.2,0,0.4-0.1,0.5-0.1s0.3-0.1,0.4-0.3c0.1-0.1,0.2-0.3,0.2-0.4c0.1-0.1,0.1-0.3,0.1-0.5c0-0.1,0-0.1,0-0.2s0-0.1,0-0.1
							H-72.3L-72.3,138.7z"/>
					</g>
					<g id="g110" transform="translate(290.2007,491.1846)">
						<path id="path112" class="st5" d="M-72.2,140.3c0.1-0.1,0.2-0.1,0.3-0.1c0.1,0,0.3-0.1,0.3-0.1s0.2,0,0.3,0s0.1,0.1,0.2,0.1
							c0.1,0.1,0.1,0.1,0.1,0.1c0.1,0.1,0.1,0.1,0.1,0.2s0,0.1-0.1,0.2c0,0.1-0.1,0.1-0.1,0.1c-0.1,0.1-0.1,0.1-0.1,0.1
							c-0.1,0-0.1,0.1-0.2,0.1l-0.2,0.1c-0.3,0.1-0.4,0.2-0.5,0.3c-0.1,0.1-0.1,0.3-0.1,0.5c0,0.3,0.1,0.5,0.3,0.6
							c0.2,0.1,0.5,0.2,0.8,0.2c0.1,0,0.3,0,0.5-0.1c0.1,0,0.3-0.1,0.4-0.1c0-0.1,0-0.1-0.1-0.2c-0.1-0.1-0.1-0.1-0.1-0.2
							c-0.1,0-0.2,0.1-0.3,0.1c-0.1,0-0.3,0.1-0.4,0.1s-0.3,0-0.4-0.1c-0.1-0.1-0.1-0.1-0.1-0.3c0-0.1,0-0.1,0.1-0.1
							c0-0.1,0.1-0.1,0.1-0.1c0.1,0,0.1-0.1,0.1-0.1c0.1,0,0.1-0.1,0.2-0.1l0.3-0.1c0.1,0,0.2-0.1,0.3-0.1s0.1-0.1,0.2-0.1
							c0.1-0.1,0.1-0.1,0.1-0.2c0.1-0.1,0.1-0.2,0.1-0.3s0-0.3-0.1-0.4s-0.1-0.2-0.3-0.3c-0.1-0.1-0.2-0.1-0.4-0.2
							c-0.1-0.1-0.3-0.1-0.5-0.1c-0.2,0-0.3,0-0.5,0.1c-0.1,0-0.3,0.1-0.4,0.1c0,0.1,0,0.1,0.1,0.2
							C-72.2,140.2-72.2,140.2-72.2,140.3"/>
					</g>
					<g id="g114" transform="translate(295.6753,495.0498)">
						<path id="path116" class="st5" d="M-75,138.3h-0.5v0.1l1,1h0.1v-0.7h0.7c0-0.1,0-0.1,0-0.2s0-0.1,0-0.1s0-0.1,0-0.1h-0.7V137
							c0-0.1,0-0.3,0-0.4c0-0.1,0.1-0.2,0.1-0.2c0-0.1,0.1-0.1,0.1-0.1c0.1,0,0.1,0,0.2,0c0.1,0,0.1,0,0.2,0c0.1,0,0.1,0,0.1,0
							c0-0.1,0.1-0.1,0.1-0.3c0-0.1,0-0.1,0-0.2c-0.1,0-0.1,0-0.3-0.1c-0.1,0-0.2,0-0.3,0c-0.3,0-0.5,0.1-0.6,0.2
							c-0.1,0.1-0.2,0.3-0.2,0.6L-75,138.3L-75,138.3z"/>
					</g>
					<g id="g118" transform="translate(302.522,498.2808)">
						<path id="path120" class="st5" d="M-78.6,136.7c0.1,0,0.1,0,0.1,0s0.1,0,0.2,0c0.1,0,0.1,0,0.2,0c0.1,0,0.1,0,0.1,0l1-2.4
							l1,2.4c0.1,0,0.1,0,0.1,0s0.1,0,0.1,0c0.1,0,0.1,0,0.1,0c0.1,0,0.1,0,0.1,0l0.2-3.9c-0.1,0-0.1,0-0.1,0s-0.1,0-0.1,0
							s-0.1,0-0.1,0s-0.1,0-0.1,0l-0.1,3.1l-1-2.3c-0.1,0-0.1,0-0.2,0s-0.1,0-0.2,0l-0.9,2.3l-0.1-3.1c-0.1,0-0.1,0-0.1,0
							s-0.1,0-0.1,0s-0.1,0-0.1,0s-0.1,0-0.1,0L-78.6,136.7z"/>
					</g>
					<g id="g122" transform="translate(314.3569,491.0146)">
						<path id="path124" class="st5" d="M-84.6,140.4c0.2,0,0.4,0,0.5,0.1s0.3,0.1,0.3,0.2s0.1,0.2,0.1,0.3s0.1,0.3,0.1,0.4v0.6
							h-1.1c-0.1,0-0.3,0-0.4-0.1c-0.1-0.1-0.2-0.1-0.3-0.2c-0.1-0.1-0.1-0.2-0.2-0.3c-0.1-0.1-0.1-0.2-0.1-0.3
							c0-0.3,0.1-0.5,0.3-0.6C-85.2,140.5-85,140.4-84.6,140.4 M-85.5,143.1c0-0.1,0.1-0.3,0.1-0.4c0.1-0.1,0.3-0.1,0.5-0.1h1.2
							l0.5,0.7h0.1v-0.7h0.7c0-0.1,0-0.1,0-0.2c0-0.1,0-0.1,0-0.1c0-0.1,0-0.1,0-0.1H-83v-0.8c0-0.2-0.1-0.5-0.1-0.6
							c-0.1-0.2-0.2-0.3-0.3-0.5s-0.3-0.2-0.5-0.3c-0.2-0.1-0.5-0.1-0.6-0.1s-0.4,0-0.6,0.1c-0.2,0.1-0.3,0.1-0.5,0.2
							s-0.3,0.2-0.3,0.4c-0.1,0.1-0.1,0.3-0.1,0.5c0,0.1,0,0.3,0.1,0.4c0.1,0.1,0.1,0.3,0.1,0.3c0.1,0.1,0.1,0.2,0.2,0.3
							c0.1,0.1,0.2,0.1,0.3,0.2c-0.1,0.1-0.3,0.2-0.4,0.3c-0.1,0.1-0.2,0.3-0.2,0.5s0,0.3,0.1,0.5c0.1,0.1,0.1,0.2,0.3,0.3
							c0.1,0.1,0.3,0.1,0.4,0.2c0.1,0.1,0.3,0.1,0.5,0.1c0.1,0,0.2,0,0.3,0c0.1,0,0.3-0.1,0.4-0.1c0-0.1,0-0.1-0.1-0.2
							c0-0.1-0.1-0.1-0.1-0.2c-0.1,0-0.2,0.1-0.3,0.1s-0.2,0-0.3,0c-0.1,0-0.2,0-0.3-0.1c-0.1,0-0.1-0.1-0.2-0.1s-0.1-0.1-0.1-0.2
							S-85.5,143.1-85.5,143.1"/>
					</g>
					<g id="g126" transform="translate(321.1689,493.021)">
						<path id="path128" class="st5" d="M-88.2,139.4h1.2l-0.6,2L-88.2,139.4z M-86.8,138.9h-1.5l-0.3-0.9c-0.1,0-0.1,0-0.1,0
							c-0.1,0-0.1,0-0.1,0c-0.1,0-0.1,0-0.1,0c-0.1,0-0.1,0-0.1,0l1.3,3.9c0.1,0,0.1,0,0.1,0c0.1,0,0.1,0,0.2,0c0.1,0,0.1,0,0.1,0
							c0.1,0,0.1,0,0.1,0l1.3-3.9c-0.1,0-0.1,0-0.1,0s-0.1,0-0.1,0c-0.1,0-0.1,0-0.1,0c-0.1,0-0.1,0-0.1,0L-86.8,138.9z"/>
					</g>
					<g id="g130" transform="translate(329.6255,498.2808)">
						<path id="path132" class="st5" d="M-92.5,136.7c0.1,0,0.1,0,0.1,0c0.1,0,0.1,0,0.1,0c0.1,0,0.1,0,0.1,0c0.1,0,0.1,0,0.1,0
							l1.7-3v3c0.1,0,0.1,0,0.1,0s0.1,0,0.1,0s0.1,0,0.1,0s0.1,0,0.1,0v-3.9c-0.1,0-0.1,0-0.1,0s-0.1,0-0.1,0s-0.1,0-0.1,0
							s-0.1,0-0.1,0l-1.7,3v-3c-0.1,0-0.1,0-0.1,0c-0.1,0-0.1,0-0.1,0s-0.1,0-0.1,0s-0.1,0-0.1,0V136.7z"/>
					</g>
					<g id="g134" transform="translate(340.9614,493.5991)">
						<path id="path136" class="st5" d="M-98.4,139.1c0,0.1,0,0.2-0.1,0.3c0,0.1-0.1,0.2-0.1,0.3c-0.1,0.1-0.1,0.1-0.2,0.2
							c-0.1,0.1-0.2,0.1-0.3,0.1c-0.2,0-0.4-0.1-0.5-0.2s-0.2-0.3-0.2-0.6L-98.4,139.1L-98.4,139.1z M-99.8,138.7
							c0-0.3,0.1-0.5,0.3-0.6c0.1-0.1,0.4-0.2,0.6-0.2c0.3,0,0.5,0.1,0.8,0.1c0-0.1,0.1-0.1,0.1-0.2c0-0.1,0-0.1,0.1-0.3
							c-0.1-0.1-0.3-0.1-0.4-0.1c-0.1,0-0.3-0.1-0.5-0.1c-0.3,0-0.5,0.1-0.6,0.1c-0.2,0.1-0.3,0.2-0.5,0.3s-0.2,0.3-0.3,0.5
							c-0.1,0.2-0.1,0.4-0.1,0.6c0,0.2,0,0.4,0.1,0.6s0.1,0.3,0.3,0.5s0.3,0.3,0.4,0.3c0.2,0.1,0.4,0.1,0.6,0.1
							c0.2,0,0.4-0.1,0.5-0.1s0.3-0.1,0.4-0.3c0.1-0.1,0.2-0.3,0.2-0.4c0.1-0.1,0.1-0.3,0.1-0.5c0-0.1,0-0.1,0-0.2s0-0.1,0-0.1
							H-99.8L-99.8,138.7z"/>
					</g>
					<g id="g138" transform="translate(342.7192,495.9458)">
						<path id="path140" class="st5" d="M-99.3,137.9c0.1,0,0.1,0,0.1,0c0.1,0,0.1,0,0.1,0c0.1,0,0.1,0,0.1,0c0.1,0,0.1,0,0.1,0
							l0.6-2.3l0.6,2.3c0.1,0,0.1,0,0.1,0s0.1,0,0.1,0c0.1,0,0.1,0,0.1,0c0.1,0,0.1,0,0.1,0l0.6-2.3l0.6,2.3c0.1,0,0.1,0,0.1,0
							s0.1,0,0.1,0c0.1,0,0.1,0,0.1,0c0.1,0,0.1,0,0.1,0l-0.8-2.8c-0.1,0-0.1,0-0.1,0s-0.1,0-0.1,0s-0.1,0-0.1,0c-0.1,0-0.1,0-0.1,0
							l-0.6,2.1l-0.6-2.1c-0.1,0-0.1,0-0.1,0c-0.1,0-0.1,0-0.1,0c-0.1,0-0.1,0-0.1,0c-0.1,0-0.1,0-0.1,0L-99.3,137.9z"/>
					</g>
					<g id="g142" transform="translate(352.0586,491.1846)">
						<path id="path144" class="st5" d="M-104.1,140.3c0.1-0.1,0.2-0.1,0.3-0.1s0.3-0.1,0.3-0.1c0.1,0,0.2,0,0.3,0
							c0.1,0,0.1,0.1,0.2,0.1c0.1,0.1,0.1,0.1,0.1,0.1c0.1,0.1,0.1,0.1,0.1,0.2s0,0.1-0.1,0.2c0,0.1-0.1,0.1-0.1,0.1
							c-0.1,0.1-0.1,0.1-0.1,0.1c-0.1,0-0.1,0.1-0.2,0.1l-0.2,0.1c-0.3,0.1-0.4,0.2-0.5,0.3s-0.1,0.3-0.1,0.5c0,0.3,0.1,0.5,0.3,0.6
							c0.2,0.1,0.5,0.2,0.8,0.2c0.1,0,0.3,0,0.5-0.1c0.1,0,0.3-0.1,0.4-0.1c0-0.1,0-0.1-0.1-0.2c0-0.1-0.1-0.1-0.1-0.2
							c-0.1,0-0.2,0.1-0.3,0.1c-0.1,0-0.3,0.1-0.4,0.1c-0.1,0-0.3,0-0.4-0.1c-0.1-0.1-0.1-0.1-0.1-0.3c0-0.1,0-0.1,0.1-0.1
							c0-0.1,0.1-0.1,0.1-0.1c0.1,0,0.1-0.1,0.1-0.1c0.1,0,0.1-0.1,0.2-0.1l0.3-0.1c0.1,0,0.2-0.1,0.3-0.1c0.1-0.1,0.1-0.1,0.2-0.1
							c0.1-0.1,0.1-0.1,0.1-0.2c0.1-0.1,0.1-0.2,0.1-0.3s0-0.3-0.1-0.4s-0.1-0.2-0.3-0.3c-0.1-0.1-0.2-0.1-0.4-0.2
							c-0.1-0.1-0.3-0.1-0.5-0.1c-0.2,0-0.3,0-0.5,0.1c-0.1,0-0.3,0.1-0.4,0.1c0,0.1,0,0.1,0.1,0.2
							C-104.2,140.2-104.1,140.2-104.1,140.3"/>
					</g>
					<path id="path146" class="st6" d="M176.2,623.1h-17.6v3.3h17.6V623.1z"/>
					<path id="path148" class="st6" d="M217.9,604.7H208v1.9h9.9V604.7z"/>
					<path id="path150" class="st6" d="M244.2,594.5h-9.9v1.9h9.9V594.5z"/>
					<path id="path152" class="st6" d="M195.6,616h-37.1v3.3h37L195.6,616L195.6,616z"/>
					<path id="path154" class="st6" d="M176.2,610.4h-17.6v3.3h17.6V610.4z"/>
					<path id="path156" class="st6" d="M189.5,603.3h-30.9v3.3h30.9V603.3z"/>
					<path id="path158" class="st6" d="M182.2,597.8h-23.6v3.3h23.6V597.8L182.2,597.8z"/>
					<g id="g160" transform="translate(260.187,508.8984)">
						<path id="path162" class="st7" d="M-56.7,131.2v-47"/>
					</g>
					<g id="g164" transform="translate(209.9375,508.8984)">
						<path id="path166" class="st7" d="M-30.8,131.2h47.4"/>
					</g>
					<path id="path168" class="st8" d="M223.1,608.9H208v16.7h15.1V608.9z"/>
				</g>
			</g>
		</g>
	</g>
	<g id="g170">
		<g>
			<g>
				<defs>
					<rect id="SVGID_3_" x="202.1" y="602.3" width="26.8" height="29.8"/>
				</defs>
				<clipPath id="SVGID_4_">
					<use xlink:href="#SVGID_3_"  style="overflow:visible;"/>
				</clipPath>
				<g id="g172" class="st9">
					<g id="g178" transform="translate(303.6782,439.998)">
						<path id="path180" class="st10" d="M-79.2,166.7c0.2,1.7-0.5,3.2-2,4.1l-7.1,4.1l-5.3-2.9c-1.6-0.9-1.5-1.4-1.9-3.2"/>
					</g>
					<g id="g182" transform="translate(284.2686,456.7261)">
						<path id="path184" class="st11" d="M-69.2,158.1c-1,0-2.1-0.7-2.4-1.6c-0.4-1-0.4-2.3-0.4-2.3l1.9,1l2.3-1.6
							c0,0,1.8,1.7,1.5,2.8c-0.3,0.9-1.4,1.6-2.4,1.6"/>
					</g>
					<g id="g186" transform="translate(282.3735,450.9639)">
						<path id="path188" class="st5" d="M-68.2,161.1c0,0,3.2,0.8,3.2,1.8l-0.2,2.3l-3.8,1v-3.4C-69.1,161.9-68.2,161.1-68.2,161.1"
							/>
					</g>
					<g id="g190" transform="translate(285.4844,454.9761)">
						<path id="path192" class="st12" d="M-69.8,159c1.1-0.4,1.6-0.1,1.6-0.1l-0.2,2.3l-3.8,1l0.4-1.1
							C-71.8,161.1-71.2,159.5-69.8,159"/>
					</g>
					<g id="g194" transform="translate(286.3472,473.8306)">
						<path id="path196" class="st5" d="M-70.2,149.2L-70.2,149.2h-0.1c-1.7,0-2.8-1.3-2.8-3l0.1-1.7c0-1.2,0.1-1.8,0.6-2.6
							c0.6-0.8,1.8-1.3,2.6-1.3h0.1c0.8,0,1.2,0.4,1.7,1.3c0.5,1,0.5,1.5,0.5,2.6l0.2,1.6C-67.4,148-68.5,149.2-70.2,149.2"/>
					</g>
					<g id="g198" transform="translate(279.7163,465.8198)">
						<path id="path200" class="st13" d="M-66.8,153.4l0.8-0.3c0,0,0.7,0.6,1.2,1.9c0.5,1.3,0.2,2.2,0.2,2.2s-0.9,0.4-1.8-0.7
							C-67.5,155.3-66.8,153.4-66.8,153.4"/>
					</g>
					<g id="g202" transform="translate(278.2788,463.873)">
						<path id="path204" class="st5" d="M-66.1,154.4c0-0.5,0.3-1,0.8-1c0.5,0,0.8,0.5,0.8,1c0,0.6-0.4,1-0.8,1
							C-65.7,155.4-66.1,154.9-66.1,154.4"/>
					</g>
					<g id="g206" transform="translate(282.3735,450.9639)">
						<path id="path208" class="st14" d="M-68.2,161.1l-0.8-4.6"/>
					</g>
				</g>
			</g>
		</g>
	</g>
	<g id="g210">
		<g>
			<g>
				<defs>
					<rect id="SVGID_5_" x="-57.7" y="270.5" width="617.8" height="563"/>
				</defs>
				<clipPath id="SVGID_6_">
					<use xlink:href="#SVGID_5_"  style="overflow:visible;"/>
				</clipPath>
				<g id="g212" class="st15">
					<g id="g218" transform="translate(272.9121,419.8159)">
						<path id="path220" class="st3" d="M-63.3,177.1l7-2.4l5.8,5.9h7l7,3.5l7,0.4"/>
					</g>
					<g id="g222" transform="translate(274.6826,419.8159)">
						<path id="path224" class="st4" d="M-64.2,177.1c0-0.5-0.4-0.8-0.8-0.8s-0.8,0.4-0.8,0.8s0.4,0.8,0.8,0.8
							C-64.6,178-64.2,177.6-64.2,177.1"/>
					</g>
					<g id="g226" transform="translate(274.6826,419.8159)">
						<path id="path228" class="st16" d="M-64.2,177.1c0-0.5-0.4-0.8-0.8-0.8s-0.8,0.4-0.8,0.8s0.4,0.8,0.8,0.8
							C-64.6,178-64.2,177.6-64.2,177.1z"/>
					</g>
					<g id="g230" transform="translate(289.126,414.9434)">
						<path id="path232" class="st17" d="M-71.7,179.6c0-0.5-0.4-0.8-0.8-0.8c-0.5,0-0.8,0.4-0.8,0.8s0.4,0.8,0.8,0.8
							C-72,180.5-71.7,180.1-71.7,179.6"/>
					</g>
					<g id="g234" transform="translate(289.126,414.9434)">
						<path id="path236" class="st18" d="M-71.7,179.6c0-0.5-0.4-0.8-0.8-0.8c-0.5,0-0.8,0.4-0.8,0.8s0.4,0.8,0.8,0.8
							C-72,180.5-71.7,180.1-71.7,179.6z"/>
					</g>
					<g id="g238" transform="translate(301.0508,427.0503)">
						<path id="path240" class="st19" d="M-77.8,173.4c0-0.5-0.4-0.8-0.8-0.8s-0.8,0.4-0.8,0.8c0,0.5,0.4,0.8,0.8,0.8
							S-77.8,173.9-77.8,173.4"/>
					</g>
					<g id="g242" transform="translate(301.0508,427.0503)">
						<path id="path244" class="st20" d="M-77.8,173.4c0-0.5-0.4-0.8-0.8-0.8s-0.8,0.4-0.8,0.8c0,0.5,0.4,0.8,0.8,0.8
							S-77.8,173.9-77.8,173.4z"/>
					</g>
					<g id="g246" transform="translate(315.4946,427.0503)">
						<path id="path248" class="st19" d="M-85.2,173.4c0-0.5-0.4-0.8-0.8-0.8s-0.8,0.4-0.8,0.8c0,0.5,0.4,0.8,0.8,0.8
							C-85.6,174.3-85.2,173.9-85.2,173.4"/>
					</g>
					<g id="g250" transform="translate(315.4946,427.0503)">
						<path id="path252" class="st20" d="M-85.2,173.4c0-0.5-0.4-0.8-0.8-0.8s-0.8,0.4-0.8,0.8c0,0.5,0.4,0.8,0.8,0.8
							C-85.6,174.3-85.2,173.9-85.2,173.4z"/>
					</g>
					<g id="g254" transform="translate(329.9385,434.25)">
						<path id="path256" class="st17" d="M-92.7,169.7c0-0.5-0.4-0.8-0.8-0.8s-0.8,0.4-0.8,0.8s0.4,0.8,0.8,0.8
							C-93.1,170.6-92.7,170.2-92.7,169.7"/>
					</g>
					<g id="g258" transform="translate(329.9385,434.25)">
						<path id="path260" class="st18" d="M-92.7,169.7c0-0.5-0.4-0.8-0.8-0.8s-0.8,0.4-0.8,0.8s0.4,0.8,0.8,0.8
							C-93.1,170.6-92.7,170.2-92.7,169.7z"/>
					</g>
					<g id="g262" transform="translate(344.3818,435.1504)">
						<path id="path264" class="st19" d="M-100.2,169.2c0-0.5-0.4-0.8-0.8-0.8s-0.8,0.4-0.8,0.8s0.4,0.8,0.8,0.8
							C-100.5,170.1-100.2,169.7-100.2,169.2"/>
					</g>
					<g id="g266" transform="translate(344.3818,435.1504)">
						<path id="path268" class="st20" d="M-100.2,169.2c0-0.5-0.4-0.8-0.8-0.8s-0.8,0.4-0.8,0.8s0.4,0.8,0.8,0.8
							C-100.5,170.1-100.2,169.7-100.2,169.2z"/>
					</g>
					<g id="g270" transform="translate(307.7622,478.5513)">
						<path id="path272" class="st21" d="M-81.3,146.9h14.4"/>
					</g>
					<g id="g274" transform="translate(307.7622,474.7437)">
						<path id="path276" class="st21" d="M-81.3,148.8h11.4"/>
					</g>
					<g id="g278" transform="translate(307.7622,470.9365)">
						<path id="path280" class="st21" d="M-81.3,150.8h14.4"/>
					</g>
					<g id="g282" transform="translate(307.7622,467.1294)">
						<path id="path284" class="st21" d="M-81.3,152.7h14.4"/>
					</g>
					<g id="g286" transform="translate(307.7622,463.3223)">
						<path id="path288" class="st21" d="M-81.3,154.7h11.4"/>
					</g>
					<g id="g290" transform="translate(307.7622,459.644)">
						<path id="path292" class="st21" d="M-81.3,156.6h14.4"/>
					</g>
					<g id="g294" transform="translate(307.7622,455.8369)">
						<path id="path296" class="st21" d="M-81.3,158.6h11.4"/>
					</g>
					<g id="g298" transform="translate(307.7622,452.0298)">
						<path id="path300" class="st21" d="M-81.3,160.5h14.4"/>
					</g>
					<g id="g302" transform="translate(307.7622,448.2222)">
						<path id="path304" class="st21" d="M-81.3,162.5h14.4"/>
					</g>
					<g id="g306" transform="translate(307.7622,444.415)">
						<path id="path308" class="st21" d="M-81.3,164.4h11.4"/>
					</g>
				</g>
			</g>
		</g>
	</g>
	<g id="g310">
		<g>
			<g>
				<defs>
					<rect id="SVGID_7_" x="-57.7" y="270.5" width="617.8" height="563"/>
				</defs>
				<clipPath id="SVGID_8_">
					<use xlink:href="#SVGID_7_"  style="overflow:visible;"/>
				</clipPath>
				<g id="g312" class="st22">
					<g id="g318" transform="translate(322.4888,251.6079)">
						<path id="path320" class="st2" d="M-88.9,263.9H-190c-1,0-1.8,0.8-1.8,1.8v58.7c0,1,0.8,1.8,1.8,1.8h101.1
							c1,0,1.8-0.8,1.8-1.8v-58.7C-87,264.7-87.9,263.9-88.9,263.9"/>
					</g>
					<g id="g322" transform="translate(322.4888,251.6079)">
						<path id="path324" class="st23" d="M-88.9,263.9H-190c-1,0-1.8,0.8-1.8,1.8v58.7c0,1,0.8,1.8,1.8,1.8h101.1
							c1,0,1.8-0.8,1.8-1.8v-58.7C-87,264.7-87.9,263.9-88.9,263.9z"/>
					</g>
					<g id="g326" transform="translate(605.9004,323.3623)">
						<path id="path328" class="st2" d="M-235,226.9h-101.1c-1,0-1.8,0.8-1.8,1.8v58.7c0,1,0.8,1.8,1.8,1.8H-235
							c1,0,1.8-0.8,1.8-1.8v-58.7C-233.2,227.7-234,226.9-235,226.9"/>
					</g>
					<g id="g330" transform="translate(605.9004,323.3623)">
						<path id="path332" class="st3" d="M-235,226.9h-101.1c-1,0-1.8,0.8-1.8,1.8v58.7c0,1,0.8,1.8,1.8,1.8H-235
							c1,0,1.8-0.8,1.8-1.8v-58.7C-233.2,227.7-234,226.9-235,226.9z"/>
					</g>
					<g id="g334" transform="translate(560.1016,387.417)">
						<path id="path336" class="st7" d="M-211.4,193.9h-55.8"/>
					</g>
					<g id="g338" transform="translate(444.9746,328.1704)">
						<path id="path340" class="st7" d="M-152,224.4v57.7"/>
					</g>
					<g id="g342" transform="translate(560.1016,328.1704)">
						<path id="path344" class="st7" d="M-211.4,224.4v57.7"/>
					</g>
					<g id="g346" transform="translate(489.8867,387.417)">
						<path id="path348" class="st7" d="M-175.2,193.9v29"/>
					</g>
					<g id="g350" transform="translate(397.7842,367.8843)">
						<path id="path352" class="st7" d="M-127.7,203.9h22.9"/>
					</g>
					<g id="g354" transform="translate(397.7842,407.5981)">
						<path id="path356" class="st7" d="M-127.7,183.5h22.9"/>
					</g>
					<g id="g358" transform="translate(440.2666,361.7295)">
						<path id="path360" class="st7" d="M-149.6,207.1h-3.2"/>
					</g>
					<g id="g362" transform="translate(440.2666,401.6416)">
						<path id="path364" class="st7" d="M-149.6,186.5h-3.2"/>
					</g>
					<g id="g366" transform="translate(440.2666,441.5532)">
						<path id="path368" class="st7" d="M-149.6,165.9h-3.2"/>
					</g>
					<g id="g370" transform="translate(454.96,347.7061)">
						<path id="path372" class="st7" d="M-157.2,214.3l5.8,3.5l5.8-1.7l5.8,2.3l5.8-1.2l5.8,7.1h5.8l5.8,4.8l5.8,0.4"/>
					</g>
					<g id="g374" transform="translate(456.7305,347.7061)">
						<path id="path376" class="st4" d="M-158.1,214.3c0-0.5-0.4-0.8-0.8-0.8s-0.8,0.4-0.8,0.8s0.4,0.8,0.8,0.8
							S-158.1,214.8-158.1,214.3"/>
					</g>
					<g id="g378" transform="translate(456.7305,347.7061)">
						<path id="path380" class="st16" d="M-158.1,214.3c0-0.5-0.4-0.8-0.8-0.8s-0.8,0.4-0.8,0.8s0.4,0.8,0.8,0.8
							S-158.1,214.8-158.1,214.3z"/>
					</g>
					<g id="g382" transform="translate(468.6553,354.9629)">
						<path id="path384" class="st17" d="M-164.3,210.6c0-0.5-0.4-0.8-0.8-0.8s-0.8,0.4-0.8,0.8c0,0.5,0.4,0.8,0.8,0.8
							S-164.3,211-164.3,210.6"/>
					</g>
					<g id="g386" transform="translate(468.6553,354.9629)">
						<path id="path388" class="st18" d="M-164.3,210.6c0-0.5-0.4-0.8-0.8-0.8s-0.8,0.4-0.8,0.8c0,0.5,0.4,0.8,0.8,0.8
							S-164.3,211-164.3,210.6z"/>
					</g>
					<g id="g390" transform="translate(480.5801,351.4229)">
						<path id="path392" class="st4" d="M-170.4,212.4c0-0.5-0.4-0.8-0.8-0.8s-0.8,0.4-0.8,0.8c0,0.5,0.4,0.8,0.8,0.8
							C-170.8,213.3-170.4,212.9-170.4,212.4"/>
					</g>
					<g id="g394" transform="translate(480.5801,351.4229)">
						<path id="path396" class="st16" d="M-170.4,212.4c0-0.5-0.4-0.8-0.8-0.8s-0.8,0.4-0.8,0.8c0,0.5,0.4,0.8,0.8,0.8
							C-170.8,213.3-170.4,212.9-170.4,212.4z"/>
					</g>
					<g id="g398" transform="translate(492.5049,356.2378)">
						<path id="path400" class="st4" d="M-176.6,209.9c0-0.5-0.4-0.8-0.8-0.8s-0.8,0.4-0.8,0.8s0.4,0.8,0.8,0.8
							C-176.9,210.8-176.6,210.4-176.6,209.9"/>
					</g>
					<g id="g402" transform="translate(492.5049,356.2378)">
						<path id="path404" class="st16" d="M-176.6,209.9c0-0.5-0.4-0.8-0.8-0.8s-0.8,0.4-0.8,0.8s0.4,0.8,0.8,0.8
							C-176.9,210.8-176.6,210.4-176.6,209.9z"/>
					</g>
					<g id="g406" transform="translate(504.4287,353.8843)">
						<path id="path408" class="st17" d="M-182.7,211.2c0-0.5-0.4-0.8-0.8-0.8s-0.8,0.4-0.8,0.8s0.4,0.8,0.8,0.8
							S-182.7,211.6-182.7,211.2"/>
					</g>
					<g id="g410" transform="translate(504.4287,353.8843)">
						<path id="path412" class="st18" d="M-182.7,211.2c0-0.5-0.4-0.8-0.8-0.8s-0.8,0.4-0.8,0.8s0.4,0.8,0.8,0.8
							S-182.7,211.6-182.7,211.2z"/>
					</g>
					<g id="g414" transform="translate(516.3535,368.5107)">
						<path id="path416" class="st19" d="M-188.8,203.6c0-0.5-0.4-0.8-0.8-0.8s-0.8,0.4-0.8,0.8s0.4,0.8,0.8,0.8
							C-189.2,204.5-188.8,204.1-188.8,203.6"/>
					</g>
					<g id="g418" transform="translate(516.3535,368.5107)">
						<path id="path420" class="st20" d="M-188.8,203.6c0-0.5-0.4-0.8-0.8-0.8s-0.8,0.4-0.8,0.8s0.4,0.8,0.8,0.8
							C-189.2,204.5-188.8,204.1-188.8,203.6z"/>
					</g>
					<g id="g422" transform="translate(528.2783,368.5107)">
						<path id="path424" class="st19" d="M-195,203.6c0-0.5-0.4-0.8-0.8-0.8s-0.8,0.4-0.8,0.8s0.4,0.8,0.8,0.8
							C-195.3,204.5-195,204.1-195,203.6"/>
					</g>
					<g id="g426" transform="translate(528.2783,368.5107)">
						<path id="path428" class="st20" d="M-195,203.6c0-0.5-0.4-0.8-0.8-0.8s-0.8,0.4-0.8,0.8s0.4,0.8,0.8,0.8
							C-195.3,204.5-195,204.1-195,203.6z"/>
					</g>
					<g id="g430" transform="translate(540.2031,378.229)">
						<path id="path432" class="st17" d="M-201.1,198.6c0-0.5-0.4-0.8-0.8-0.8s-0.8,0.4-0.8,0.8s0.4,0.8,0.8,0.8
							C-201.5,199.5-201.1,199.1-201.1,198.6"/>
					</g>
					<g id="g434" transform="translate(540.2031,378.229)">
						<path id="path436" class="st18" d="M-201.1,198.6c0-0.5-0.4-0.8-0.8-0.8s-0.8,0.4-0.8,0.8s0.4,0.8,0.8,0.8
							C-201.5,199.5-201.1,199.1-201.1,198.6z"/>
					</g>
					<g id="g438" transform="translate(552.1279,379.1294)">
						<path id="path440" class="st19" d="M-207.3,198.1c0-0.5-0.4-0.8-0.8-0.8s-0.8,0.4-0.8,0.8s0.4,0.8,0.8,0.8
							C-207.6,198.9-207.3,198.6-207.3,198.1"/>
					</g>
					<g id="g442" transform="translate(552.1279,379.1294)">
						<path id="path444" class="st20" d="M-207.3,198.1c0-0.5-0.4-0.8-0.8-0.8s-0.8,0.4-0.8,0.8s0.4,0.8,0.8,0.8
							C-207.6,198.9-207.3,198.6-207.3,198.1z"/>
					</g>
					<g id="g446" transform="translate(451.8389,441.5532)">
						<path id="path448" class="st7" d="M-155.6,165.9h11.4"/>
					</g>
					<g id="g450" transform="translate(451.8389,435.0737)">
						<path id="path452" class="st7" d="M-155.6,169.3h14.4"/>
					</g>
					<g id="g454" transform="translate(451.8389,431.8335)">
						<path id="path456" class="st7" d="M-155.6,171h11.4"/>
					</g>
					<g id="g458" transform="translate(451.8389,428.5937)">
						<path id="path460" class="st7" d="M-155.6,172.6h14.4"/>
					</g>
					<g id="g462" transform="translate(451.8389,422.1138)">
						<path id="path464" class="st24" d="M-155.6,176h11.4"/>
					</g>
					<g id="g466" transform="translate(451.8389,415.6338)">
						<path id="path468" class="st7" d="M-155.6,179.3h14.4"/>
					</g>
					<g id="g470" transform="translate(451.8389,412.3936)">
						<path id="path472" class="st7" d="M-155.6,181h11.4"/>
					</g>
					<g id="g474" transform="translate(451.8389,409.1538)">
						<path id="path476" class="st7" d="M-155.6,182.7h14.4"/>
					</g>
					<g id="g478" transform="translate(451.8389,405.9136)">
						<path id="path480" class="st7" d="M-155.6,184.3h14.4"/>
					</g>
					<g id="g482" transform="translate(451.8389,402.6738)">
						<path id="path484" class="st7" d="M-155.6,186h11.4"/>
					</g>
					<g id="g486" transform="translate(451.8389,395.6592)">
						<path id="path488" class="st25" d="M-155.6,189.6h7"/>
					</g>
					<g id="g490" transform="translate(454.96,335.3555)">
						<path id="path492" class="st7" d="M-157.2,220.7h46.2"/>
					</g>
					<g id="g494" transform="translate(566.7793,441.5532)">
						<path id="path496" class="st7" d="M-214.9,165.9h2.8"/>
					</g>
					<g id="g498" transform="translate(566.7793,439.1787)">
						<path id="path500" class="st7" d="M-214.9,167.1h3.7"/>
					</g>
					<g id="g502" transform="translate(566.7793,436.8042)">
						<path id="path504" class="st7" d="M-214.9,168.4h2.3"/>
					</g>
					<g id="g506" transform="translate(566.7793,434.4297)">
						<path id="path508" class="st7" d="M-214.9,169.6h3.7"/>
					</g>
					<g id="g510" transform="translate(566.7793,432.0552)">
						<path id="path512" class="st7" d="M-214.9,170.8h3.2"/>
					</g>
					<g id="g514" transform="translate(566.7793,429.6807)">
						<path id="path516" class="st7" d="M-214.9,172.1h3.7"/>
					</g>
					<g id="g518" transform="translate(566.7793,427.3057)">
						<path id="path520" class="st7" d="M-214.9,173.3h2.6"/>
					</g>
					<g id="g522" transform="translate(566.7793,424.9312)">
						<path id="path524" class="st7" d="M-214.9,174.5h3.7"/>
					</g>
					<g id="g526" transform="translate(566.7793,422.5566)">
						<path id="path528" class="st7" d="M-214.9,175.8h3.2"/>
					</g>
					<g id="g530" transform="translate(566.7793,420.1821)">
						<path id="path532" class="st7" d="M-214.9,176.9h3.7"/>
					</g>
					<g id="g534" transform="translate(566.7793,417.8076)">
						<path id="path536" class="st7" d="M-214.9,178.2h3.7"/>
					</g>
					<g id="g538" transform="translate(566.7793,415.4326)">
						<path id="path540" class="st7" d="M-214.9,179.4h2.8"/>
					</g>
					<g id="g542" transform="translate(566.7793,413.0581)">
						<path id="path544" class="st7" d="M-214.9,180.6h3.7"/>
					</g>
					<g id="g546" transform="translate(566.7793,410.6836)">
						<path id="path548" class="st7" d="M-214.9,181.9h2.3"/>
					</g>
					<g id="g550" transform="translate(566.7793,408.3091)">
						<path id="path552" class="st7" d="M-214.9,183.1h3.7"/>
					</g>
					<g id="g554" transform="translate(566.7793,405.9346)">
						<path id="path556" class="st7" d="M-214.9,184.3h3.2"/>
					</g>
					<g id="g558" transform="translate(566.7793,403.5601)">
						<path id="path560" class="st7" d="M-214.9,185.5h3.7"/>
					</g>
					<g id="g562" transform="translate(566.7793,401.1851)">
						<path id="path564" class="st7" d="M-214.9,186.7h3.2"/>
					</g>
					<g id="g566" transform="translate(566.7793,398.8105)">
						<path id="path568" class="st7" d="M-214.9,187.9h3.7"/>
					</g>
					<g id="g570" transform="translate(566.7793,396.436)">
						<path id="path572" class="st7" d="M-214.9,189.2h3.7"/>
					</g>
					<g id="g574" transform="translate(566.7793,394.0615)">
						<path id="path576" class="st7" d="M-214.9,190.4h3.2"/>
					</g>
					<g id="g578" transform="translate(566.7793,391.687)">
						<path id="path580" class="st7" d="M-214.9,191.6h3.7"/>
					</g>
					<g id="g582" transform="translate(566.7793,389.312)">
						<path id="path584" class="st7" d="M-214.9,192.9h2.6"/>
					</g>
					<g id="g586" transform="translate(566.7793,386.9375)">
						<path id="path588" class="st7" d="M-214.9,194.1h3.7"/>
					</g>
					<g id="g590" transform="translate(566.7793,384.563)">
						<path id="path592" class="st7" d="M-214.9,195.3h3.7"/>
					</g>
					<g id="g594" transform="translate(566.7793,382.1885)">
						<path id="path596" class="st7" d="M-214.9,196.6h3.2"/>
					</g>
					<g id="g598" transform="translate(566.7793,379.814)">
						<path id="path600" class="st7" d="M-214.9,197.7h3.7"/>
					</g>
					<g id="g602" transform="translate(566.7793,377.4395)">
						<path id="path604" class="st7" d="M-214.9,199h3.2"/>
					</g>
					<g id="g606" transform="translate(566.7793,375.0645)">
						<path id="path608" class="st7" d="M-214.9,200.2h3.7"/>
					</g>
					<g id="g610" transform="translate(566.7793,372.6899)">
						<path id="path612" class="st7" d="M-214.9,201.4h3.7"/>
					</g>
					<g id="g614" transform="translate(566.7793,370.3154)">
						<path id="path616" class="st7" d="M-214.9,202.7h3.2"/>
					</g>
					<g id="g618" transform="translate(566.7793,367.9409)">
						<path id="path620" class="st7" d="M-214.9,203.9h3.7"/>
					</g>
					<g id="g622" transform="translate(566.7793,365.5664)">
						<path id="path624" class="st7" d="M-214.9,205.1h2.3"/>
					</g>
					<g id="g626" transform="translate(566.7793,363.1914)">
						<path id="path628" class="st7" d="M-214.9,206.4h3.2"/>
					</g>
					<g id="g630" transform="translate(566.7793,360.8169)">
						<path id="path632" class="st7" d="M-214.9,207.5h3.7"/>
					</g>
					<g id="g634" transform="translate(566.7793,358.4424)">
						<path id="path636" class="st7" d="M-214.9,208.8h3.2"/>
					</g>
					<g id="g638" transform="translate(566.7793,356.0679)">
						<path id="path640" class="st7" d="M-214.9,210h3.7"/>
					</g>
					<g id="g642" transform="translate(566.7793,353.6934)">
						<path id="path644" class="st7" d="M-214.9,211.2h2.3"/>
					</g>
					<g id="g646" transform="translate(566.7793,351.3188)">
						<path id="path648" class="st7" d="M-214.9,212.5h3.2"/>
					</g>
					<g id="g650" transform="translate(566.7793,348.9438)">
						<path id="path652" class="st7" d="M-214.9,213.7h3.7"/>
					</g>
					<g id="g654" transform="translate(566.7793,346.5693)">
						<path id="path656" class="st7" d="M-214.9,214.9h2.6"/>
					</g>
					<g id="g658" transform="translate(566.7793,344.1948)">
						<path id="path660" class="st7" d="M-214.9,216.2h3.2"/>
					</g>
					<g id="g662" transform="translate(566.7793,341.8203)">
						<path id="path664" class="st7" d="M-214.9,217.4h2.3"/>
					</g>
					<g id="g666" transform="translate(566.7793,339.4458)">
						<path id="path668" class="st7" d="M-214.9,218.6h3.7"/>
					</g>
					<g id="g670" transform="translate(566.7793,337.0708)">
						<path id="path672" class="st7" d="M-214.9,219.8h3.2"/>
					</g>
					<g id="g674" transform="translate(566.7793,334.6963)">
						<path id="path676" class="st7" d="M-214.9,221h3.7"/>
					</g>
					<g id="g678" transform="translate(580.4873,441.5532)">
						<path id="path680" class="st7" d="M-221.9,165.9h1.9"/>
					</g>
					<g id="g682" transform="translate(580.4873,439.1787)">
						<path id="path684" class="st7" d="M-221.9,167.1h1.9"/>
					</g>
					<g id="g686" transform="translate(580.4873,436.8042)">
						<path id="path688" class="st7" d="M-221.9,168.4h1.9"/>
					</g>
					<g id="g690" transform="translate(580.4873,434.4297)">
						<path id="path692" class="st7" d="M-221.9,169.6h1.9"/>
					</g>
					<g id="g694" transform="translate(580.4873,432.0552)">
						<path id="path696" class="st7" d="M-221.9,170.8h1.9"/>
					</g>
					<g id="g698" transform="translate(580.4873,429.6807)">
						<path id="path700" class="st7" d="M-221.9,172.1h1.9"/>
					</g>
					<g id="g702" transform="translate(580.4873,427.3057)">
						<path id="path704" class="st7" d="M-221.9,173.3h1.9"/>
					</g>
					<g id="g706" transform="translate(580.4873,424.9312)">
						<path id="path708" class="st7" d="M-221.9,174.5h1.9"/>
					</g>
					<g id="g710" transform="translate(580.4873,422.5566)">
						<path id="path712" class="st7" d="M-221.9,175.8h1.9"/>
					</g>
					<g id="g714" transform="translate(580.4873,420.1821)">
						<path id="path716" class="st7" d="M-221.9,176.9h1.9"/>
					</g>
					<g id="g718" transform="translate(580.4873,417.8076)">
						<path id="path720" class="st7" d="M-221.9,178.2h1.9"/>
					</g>
					<g id="g722" transform="translate(580.4873,415.4326)">
						<path id="path724" class="st7" d="M-221.9,179.4h1.9"/>
					</g>
					<g id="g726" transform="translate(580.4873,413.0581)">
						<path id="path728" class="st7" d="M-221.9,180.6h1.9"/>
					</g>
					<g id="g730" transform="translate(580.4873,410.6836)">
						<path id="path732" class="st7" d="M-221.9,181.9h1.9"/>
					</g>
					<g id="g734" transform="translate(580.4873,408.3091)">
						<path id="path736" class="st7" d="M-221.9,183.1h1.9"/>
					</g>
					<g id="g738" transform="translate(580.4873,405.9346)">
						<path id="path740" class="st7" d="M-221.9,184.3h1.9"/>
					</g>
					<g id="g742" transform="translate(580.4873,403.5601)">
						<path id="path744" class="st7" d="M-221.9,185.5h1.9"/>
					</g>
					<g id="g746" transform="translate(580.4873,401.1851)">
						<path id="path748" class="st7" d="M-221.9,186.7h1.9"/>
					</g>
					<g id="g750" transform="translate(580.4873,398.8105)">
						<path id="path752" class="st7" d="M-221.9,187.9h1.9"/>
					</g>
					<g id="g754" transform="translate(580.4873,396.436)">
						<path id="path756" class="st7" d="M-221.9,189.2h1.9"/>
					</g>
					<g id="g758" transform="translate(580.4873,394.0615)">
						<path id="path760" class="st7" d="M-221.9,190.4h1.9"/>
					</g>
					<g id="g762" transform="translate(580.4873,391.687)">
						<path id="path764" class="st7" d="M-221.9,191.6h1.9"/>
					</g>
					<g id="g766" transform="translate(580.4873,389.312)">
						<path id="path768" class="st7" d="M-221.9,192.9h1.9"/>
					</g>
					<g id="g770" transform="translate(580.4873,386.9375)">
						<path id="path772" class="st7" d="M-221.9,194.1h1.9"/>
					</g>
					<g id="g774" transform="translate(580.4873,384.563)">
						<path id="path776" class="st7" d="M-221.9,195.3h1.9"/>
					</g>
					<g id="g778" transform="translate(580.4873,382.1885)">
						<path id="path780" class="st7" d="M-221.9,196.6h1.9"/>
					</g>
					<g id="g782" transform="translate(580.4873,379.814)">
						<path id="path784" class="st7" d="M-221.9,197.7h1.9"/>
					</g>
					<g id="g786" transform="translate(580.4873,377.4395)">
						<path id="path788" class="st7" d="M-221.9,199h1.9"/>
					</g>
					<g id="g790" transform="translate(580.4873,375.0645)">
						<path id="path792" class="st7" d="M-221.9,200.2h1.9"/>
					</g>
					<g id="g794" transform="translate(580.4873,372.6899)">
						<path id="path796" class="st7" d="M-221.9,201.4h1.9"/>
					</g>
					<g id="g798" transform="translate(580.4873,370.3154)">
						<path id="path800" class="st7" d="M-221.9,202.7h1.9"/>
					</g>
					<g id="g802" transform="translate(580.4873,367.9409)">
						<path id="path804" class="st7" d="M-221.9,203.9h1.9"/>
					</g>
					<g id="g806" transform="translate(580.4873,365.5664)">
						<path id="path808" class="st7" d="M-221.9,205.1h1.9"/>
					</g>
					<g id="g810" transform="translate(580.4873,363.1914)">
						<path id="path812" class="st7" d="M-221.9,206.4h1.9"/>
					</g>
					<g id="g814" transform="translate(580.4873,360.8169)">
						<path id="path816" class="st7" d="M-221.9,207.5h1.9"/>
					</g>
					<g id="g818" transform="translate(580.4873,358.4424)">
						<path id="path820" class="st7" d="M-221.9,208.8h1.9"/>
					</g>
					<g id="g822" transform="translate(580.4873,356.0679)">
						<path id="path824" class="st7" d="M-221.9,210h1.9"/>
					</g>
					<g id="g826" transform="translate(580.4873,353.6934)">
						<path id="path828" class="st7" d="M-221.9,211.2h1.9"/>
					</g>
					<g id="g830" transform="translate(580.4873,351.3188)">
						<path id="path832" class="st7" d="M-221.9,212.5h1.9"/>
					</g>
					<g id="g834" transform="translate(580.4873,348.9438)">
						<path id="path836" class="st7" d="M-221.9,213.7h1.9"/>
					</g>
					<g id="g838" transform="translate(580.4873,346.5693)">
						<path id="path840" class="st7" d="M-221.9,214.9h1.9"/>
					</g>
					<g id="g842" transform="translate(580.4873,344.1948)">
						<path id="path844" class="st7" d="M-221.9,216.2h1.9"/>
					</g>
					<g id="g846" transform="translate(580.4873,341.8203)">
						<path id="path848" class="st7" d="M-221.9,217.4h1.9"/>
					</g>
					<g id="g850" transform="translate(580.4873,339.4458)">
						<path id="path852" class="st7" d="M-221.9,218.6h1.9"/>
					</g>
					<g id="g854" transform="translate(580.4873,337.0708)">
						<path id="path856" class="st7" d="M-221.9,219.8h1.9"/>
					</g>
					<g id="g858" transform="translate(580.4873,334.6963)">
						<path id="path860" class="st7" d="M-221.9,221h1.9"/>
					</g>
					<g id="g862" transform="translate(597.2148,441.5532)">
						<path id="path864" class="st7" d="M-230.5,165.9h1.5"/>
					</g>
					<g id="g866" transform="translate(597.2148,439.1787)">
						<path id="path868" class="st7" d="M-230.5,167.1h1.5"/>
					</g>
					<g id="g870" transform="translate(597.2148,436.8042)">
						<path id="path872" class="st7" d="M-230.5,168.4h1.5"/>
					</g>
					<g id="g874" transform="translate(597.2148,434.4297)">
						<path id="path876" class="st7" d="M-230.5,169.6h1.5"/>
					</g>
					<g id="g878" transform="translate(597.2148,432.0552)">
						<path id="path880" class="st7" d="M-230.5,170.8h1.5"/>
					</g>
					<g id="g882" transform="translate(597.2148,429.6807)">
						<path id="path884" class="st7" d="M-230.5,172.1h1.5"/>
					</g>
					<g id="g886" transform="translate(597.2148,427.3057)">
						<path id="path888" class="st7" d="M-230.5,173.3h1.5"/>
					</g>
					<g id="g890" transform="translate(597.2148,424.9312)">
						<path id="path892" class="st7" d="M-230.5,174.5h1.5"/>
					</g>
					<g id="g894" transform="translate(597.2148,422.5566)">
						<path id="path896" class="st7" d="M-230.5,175.8h1.5"/>
					</g>
					<g id="g898" transform="translate(597.2148,420.1821)">
						<path id="path900" class="st7" d="M-230.5,176.9h1.5"/>
					</g>
					<g id="g902" transform="translate(597.2148,417.8076)">
						<path id="path904" class="st7" d="M-230.5,178.2h1.5"/>
					</g>
					<g id="g906" transform="translate(597.2148,415.4326)">
						<path id="path908" class="st7" d="M-230.5,179.4h1.5"/>
					</g>
					<g id="g910" transform="translate(597.2148,413.0581)">
						<path id="path912" class="st7" d="M-230.5,180.6h1.5"/>
					</g>
					<g id="g914" transform="translate(597.2148,410.6836)">
						<path id="path916" class="st7" d="M-230.5,181.9h1.5"/>
					</g>
					<g id="g918" transform="translate(597.2148,408.3091)">
						<path id="path920" class="st7" d="M-230.5,183.1h1.5"/>
					</g>
					<g id="g922" transform="translate(597.2148,405.9346)">
						<path id="path924" class="st7" d="M-230.5,184.3h1.5"/>
					</g>
					<g id="g926" transform="translate(597.2148,403.5601)">
						<path id="path928" class="st7" d="M-230.5,185.5h1.5"/>
					</g>
					<g id="g930" transform="translate(597.2148,401.1851)">
						<path id="path932" class="st7" d="M-230.5,186.7h1.5"/>
					</g>
					<g id="g934" transform="translate(597.2148,398.8105)">
						<path id="path936" class="st7" d="M-230.5,187.9h1.5"/>
					</g>
					<g id="g938" transform="translate(597.2148,396.436)">
						<path id="path940" class="st7" d="M-230.5,189.2h1.5"/>
					</g>
					<g id="g942" transform="translate(597.2148,394.0615)">
						<path id="path944" class="st7" d="M-230.5,190.4h1.5"/>
					</g>
					<g id="g946" transform="translate(597.2148,391.687)">
						<path id="path948" class="st7" d="M-230.5,191.6h1.5"/>
					</g>
					<g id="g950" transform="translate(597.2148,389.312)">
						<path id="path952" class="st7" d="M-230.5,192.9h1.5"/>
					</g>
					<g id="g954" transform="translate(597.2148,386.9375)">
						<path id="path956" class="st7" d="M-230.5,194.1h1.5"/>
					</g>
					<g id="g958" transform="translate(597.2148,384.563)">
						<path id="path960" class="st7" d="M-230.5,195.3h1.5"/>
					</g>
					<g id="g962" transform="translate(597.2148,382.1885)">
						<path id="path964" class="st7" d="M-230.5,196.6h1.5"/>
					</g>
					<g id="g966" transform="translate(597.2148,379.814)">
						<path id="path968" class="st7" d="M-230.5,197.7h1.5"/>
					</g>
					<g id="g970" transform="translate(597.2148,377.4395)">
						<path id="path972" class="st7" d="M-230.5,199h1.5"/>
					</g>
					<g id="g974" transform="translate(597.2148,375.0645)">
						<path id="path976" class="st7" d="M-230.5,200.2h1.5"/>
					</g>
					<g id="g978" transform="translate(597.2148,372.6899)">
						<path id="path980" class="st7" d="M-230.5,201.4h1.5"/>
					</g>
					<g id="g982" transform="translate(597.2148,370.3154)">
						<path id="path984" class="st7" d="M-230.5,202.7h1.5"/>
					</g>
					<g id="g986" transform="translate(597.2148,367.9409)">
						<path id="path988" class="st7" d="M-230.5,203.9h1.5"/>
					</g>
					<g id="g990" transform="translate(597.2148,365.5664)">
						<path id="path992" class="st7" d="M-230.5,205.1h1.5"/>
					</g>
					<g id="g994" transform="translate(597.2148,363.1914)">
						<path id="path996" class="st7" d="M-230.5,206.4h1.5"/>
					</g>
					<g id="g998" transform="translate(597.2148,360.8169)">
						<path id="path1000" class="st7" d="M-230.5,207.5h1.5"/>
					</g>
					<g id="g1002" transform="translate(597.2148,358.4424)">
						<path id="path1004" class="st7" d="M-230.5,208.8h1.5"/>
					</g>
					<g id="g1006" transform="translate(597.2148,356.0679)">
						<path id="path1008" class="st7" d="M-230.5,210h1.5"/>
					</g>
					<g id="g1010" transform="translate(597.2148,353.6934)">
						<path id="path1012" class="st7" d="M-230.5,211.2h1.5"/>
					</g>
					<g id="g1014" transform="translate(597.2148,351.3188)">
						<path id="path1016" class="st7" d="M-230.5,212.5h1.5"/>
					</g>
					<g id="g1018" transform="translate(597.2148,348.9438)">
						<path id="path1020" class="st7" d="M-230.5,213.7h1.5"/>
					</g>
					<g id="g1022" transform="translate(597.2148,346.5693)">
						<path id="path1024" class="st7" d="M-230.5,214.9h1.5"/>
					</g>
					<g id="g1026" transform="translate(597.2148,344.1948)">
						<path id="path1028" class="st7" d="M-230.5,216.2h1.5"/>
					</g>
					<g id="g1030" transform="translate(597.2148,341.8203)">
						<path id="path1032" class="st7" d="M-230.5,217.4h1.5"/>
					</g>
					<g id="g1034" transform="translate(597.2148,339.4458)">
						<path id="path1036" class="st7" d="M-230.5,218.6h1.5"/>
					</g>
					<g id="g1038" transform="translate(597.2148,337.0708)">
						<path id="path1040" class="st7" d="M-230.5,219.8h1.5"/>
					</g>
					<g id="g1042" transform="translate(597.2148,334.6963)">
						<path id="path1044" class="st7" d="M-230.5,221h1.5"/>
					</g>
					<g id="g1046" transform="translate(588.1719,441.5532)">
						<path id="path1048" class="st7" d="M-225.9,165.9h2.6"/>
					</g>
					<g id="g1050" transform="translate(588.1719,439.1787)">
						<path id="path1052" class="st7" d="M-225.9,167.1h2.6"/>
					</g>
					<g id="g1054" transform="translate(588.1719,436.8042)">
						<path id="path1056" class="st7" d="M-225.9,168.4h2.6"/>
					</g>
					<g id="g1058" transform="translate(588.1719,434.4297)">
						<path id="path1060" class="st7" d="M-225.9,169.6h2.6"/>
					</g>
					<g id="g1062" transform="translate(588.1719,432.0552)">
						<path id="path1064" class="st7" d="M-225.9,170.8h2.6"/>
					</g>
					<g id="g1066" transform="translate(588.1719,429.6807)">
						<path id="path1068" class="st7" d="M-225.9,172.1h2.6"/>
					</g>
					<g id="g1070" transform="translate(588.1719,427.3057)">
						<path id="path1072" class="st7" d="M-225.9,173.3h2.6"/>
					</g>
					<g id="g1074" transform="translate(588.1719,424.9312)">
						<path id="path1076" class="st7" d="M-225.9,174.5h2.6"/>
					</g>
					<g id="g1078" transform="translate(588.1719,422.5566)">
						<path id="path1080" class="st7" d="M-225.9,175.8h2.6"/>
					</g>
					<g id="g1082" transform="translate(588.1719,420.1821)">
						<path id="path1084" class="st7" d="M-225.9,176.9h2.6"/>
					</g>
					<g id="g1086" transform="translate(588.1719,417.8076)">
						<path id="path1088" class="st7" d="M-225.9,178.2h2.6"/>
					</g>
					<g id="g1090" transform="translate(588.1719,415.4326)">
						<path id="path1092" class="st7" d="M-225.9,179.4h2.6"/>
					</g>
					<g id="g1094" transform="translate(588.1719,413.0581)">
						<path id="path1096" class="st7" d="M-225.9,180.6h2.6"/>
					</g>
					<g id="g1098" transform="translate(588.1719,410.6836)">
						<path id="path1100" class="st7" d="M-225.9,181.9h2.6"/>
					</g>
					<g id="g1102" transform="translate(588.1719,408.3091)">
						<path id="path1104" class="st7" d="M-225.9,183.1h2.6"/>
					</g>
					<g id="g1106" transform="translate(588.1719,405.9346)">
						<path id="path1108" class="st7" d="M-225.9,184.3h2.6"/>
					</g>
					<g id="g1110" transform="translate(588.1719,403.5601)">
						<path id="path1112" class="st7" d="M-225.9,185.5h2.6"/>
					</g>
					<g id="g1114" transform="translate(588.1719,401.1851)">
						<path id="path1116" class="st7" d="M-225.9,186.7h2.6"/>
					</g>
					<g id="g1118" transform="translate(588.1719,398.8105)">
						<path id="path1120" class="st7" d="M-225.9,187.9h2.6"/>
					</g>
					<g id="g1122" transform="translate(588.1719,396.436)">
						<path id="path1124" class="st7" d="M-225.9,189.2h2.6"/>
					</g>
					<g id="g1126" transform="translate(588.1719,394.0615)">
						<path id="path1128" class="st7" d="M-225.9,190.4h2.6"/>
					</g>
					<g id="g1130" transform="translate(588.1719,391.687)">
						<path id="path1132" class="st7" d="M-225.9,191.6h2.6"/>
					</g>
					<g id="g1134" transform="translate(588.1719,389.312)">
						<path id="path1136" class="st7" d="M-225.9,192.9h2.6"/>
					</g>
					<g id="g1138" transform="translate(588.1719,386.9375)">
						<path id="path1140" class="st7" d="M-225.9,194.1h2.6"/>
					</g>
					<g id="g1142" transform="translate(588.1719,384.563)">
						<path id="path1144" class="st7" d="M-225.9,195.3h2.6"/>
					</g>
					<g id="g1146" transform="translate(588.1719,382.1885)">
						<path id="path1148" class="st7" d="M-225.9,196.6h2.6"/>
					</g>
					<g id="g1150" transform="translate(588.1719,379.814)">
						<path id="path1152" class="st7" d="M-225.9,197.7h2.6"/>
					</g>
					<g id="g1154" transform="translate(588.1719,377.4395)">
						<path id="path1156" class="st7" d="M-225.9,199h2.6"/>
					</g>
					<g id="g1158" transform="translate(588.1719,375.0645)">
						<path id="path1160" class="st7" d="M-225.9,200.2h2.6"/>
					</g>
					<g id="g1162" transform="translate(588.1719,372.6899)">
						<path id="path1164" class="st7" d="M-225.9,201.4h2.6"/>
					</g>
					<g id="g1166" transform="translate(588.1719,370.3154)">
						<path id="path1168" class="st7" d="M-225.9,202.7h2.6"/>
					</g>
					<g id="g1170" transform="translate(588.1719,367.9409)">
						<path id="path1172" class="st7" d="M-225.9,203.9h2.6"/>
					</g>
					<g id="g1174" transform="translate(588.1719,365.5664)">
						<path id="path1176" class="st7" d="M-225.9,205.1h2.6"/>
					</g>
					<g id="g1178" transform="translate(588.1719,363.1914)">
						<path id="path1180" class="st7" d="M-225.9,206.4h2.6"/>
					</g>
					<g id="g1182" transform="translate(588.1719,360.8169)">
						<path id="path1184" class="st7" d="M-225.9,207.5h2.6"/>
					</g>
					<g id="g1186" transform="translate(588.1719,358.4424)">
						<path id="path1188" class="st7" d="M-225.9,208.8h2.6"/>
					</g>
					<g id="g1190" transform="translate(588.1719,356.0679)">
						<path id="path1192" class="st7" d="M-225.9,210h2.6"/>
					</g>
					<g id="g1194" transform="translate(588.1719,353.6934)">
						<path id="path1196" class="st7" d="M-225.9,211.2h2.6"/>
					</g>
					<g id="g1198" transform="translate(588.1719,351.3188)">
						<path id="path1200" class="st7" d="M-225.9,212.5h2.6"/>
					</g>
					<g id="g1202" transform="translate(588.1719,348.9438)">
						<path id="path1204" class="st7" d="M-225.9,213.7h2.6"/>
					</g>
					<g id="g1206" transform="translate(588.1719,346.5693)">
						<path id="path1208" class="st7" d="M-225.9,214.9h2.6"/>
					</g>
					<g id="g1210" transform="translate(588.1719,344.1948)">
						<path id="path1212" class="st7" d="M-225.9,216.2h2.6"/>
					</g>
					<g id="g1214" transform="translate(588.1719,341.8203)">
						<path id="path1216" class="st7" d="M-225.9,217.4h2.6"/>
					</g>
					<g id="g1218" transform="translate(588.1719,339.4458)">
						<path id="path1220" class="st7" d="M-225.9,218.6h2.6"/>
					</g>
					<g id="g1222" transform="translate(588.1719,337.0708)">
						<path id="path1224" class="st7" d="M-225.9,219.8h2.6"/>
					</g>
					<g id="g1226" transform="translate(588.1719,334.6963)">
						<path id="path1228" class="st7" d="M-225.9,221h2.6"/>
					</g>
					<g id="g1230" transform="translate(551.9473,415.0186)">
						<path id="path1232" class="st26" d="M-207.2,179.6c0,0-1.4-3.9-5.3-3.9c-3.9,0-6.6,6-10.8,6c-5.1,0-7.2-8-10-8v-3.5h26.2
							L-207.2,179.6z"/>
					</g>
					<g id="g1234" transform="translate(551.9473,419.3447)">
						<path id="path1236" class="st4" d="M-207.2,177.3c-2.7,0-4.8-8-10-8c-4.2,0-6.8,6-10.8,6c-3.9,0-5.3-3.9-5.3-3.9v-5.5h26.2
							L-207.2,177.3z"/>
					</g>
					<g id="g1238" transform="translate(551.9473,419.3447)">
						<path id="path1240" class="st16" d="M-207.2,177.3c-2.7,0-4.8-8-10-8c-4.2,0-6.8,6-10.8,6c-3.9,0-5.3-3.9-5.3-3.9v-5.5h26.2
							L-207.2,177.3z"/>
					</g>
					<g id="g1242" transform="translate(498.3135,407.4453)">
						<path id="path1244" class="st27" d="M-179.5,183.5c2.7,0,4.8-4.1,9.9-4.1c4.2,0,6.8,3,10.8,3s5.3-1.9,5.3-1.9v-2.8h-26.1
							L-179.5,183.5z"/>
					</g>
					<path id="path1246" class="st3" d="M344.9,585.2h-26.2v14.2h26.2V585.2z"/>
					<g id="g1248" transform="translate(508.7686,436.2036)">
						<path id="path1250" class="st4" d="M-184.9,168.7c0-1.4-1.2-2.6-2.6-2.6c-1.4,0-2.6,1.2-2.6,2.6s1.2,2.6,2.6,2.6
							C-186.1,171.3-184.9,170.1-184.9,168.7"/>
					</g>
					<g id="g1252" transform="translate(530.4482,436.2036)">
						<path id="path1254" class="st27" d="M-196.1,168.7c0-1.4-1.2-2.6-2.6-2.6s-2.6,1.2-2.6,2.6s1.2,2.6,2.6,2.6
							S-196.1,170.1-196.1,168.7"/>
					</g>
					<g id="g1256" transform="translate(552.1279,436.2036)">
						<path id="path1258" class="st26" d="M-207.3,168.7c0-1.4-1.2-2.6-2.6-2.6c-1.4,0-2.6,1.2-2.6,2.6s1.2,2.6,2.6,2.6
							C-208.5,171.3-207.3,170.1-207.3,168.7"/>
					</g>
					<g id="g1260" transform="translate(410.6035,427.9199)">
						<path id="path1262" class="st17" d="M-134.3,172.9h-3c0-4,3.3-7.3,7.3-7.3v3C-132.4,168.8-134.3,170.6-134.3,172.9"/>
					</g>
					<g id="g1264" transform="translate(427.958,427.9199)">
						<path id="path1266" class="st8" d="M-143.3,172.9c0-2.3-1.9-4.2-4.2-4.2v-3c4,0,7.3,3.3,7.3,7.3L-143.3,172.9L-143.3,172.9z"
							/>
					</g>
					<g id="g1268" transform="translate(410.6035,427.9199)">
						<path id="path1270" class="st19" d="M-134.3,172.9c0,2.3,1.9,4.2,4.2,4.2v3c-4,0-7.3-3.3-7.3-7.3L-134.3,172.9L-134.3,172.9z"
							/>
					</g>
					<g id="g1272" transform="translate(419.2812,436.5972)">
						<path id="path1274" class="st28" d="M-138.8,168.5c2.3,0,4.2-1.9,4.2-4.2h3c0,4-3.3,7.3-7.3,7.3L-138.8,168.5L-138.8,168.5z"
							/>
					</g>
					<g id="g1276" transform="translate(419.2031,396.083)">
						<path id="path1278" class="st29" d="M-138.7,189.4c2.3,0,4.2-1.9,4.2-4.2c0-0.6-0.1-1.3-0.5-1.9l2.8-1.3c0.5,1,0.7,2,0.7,3.2
							c0,4-3.2,7.2-7.2,7.2L-138.7,189.4L-138.7,189.4z"/>
					</g>
					<g id="g1280" transform="translate(412.0859,382.5742)">
						<path id="path1282" class="st17" d="M-135.1,196.4l-2.4-1.8c1.3-1.9,3.5-3.1,5.9-3.1v3C-133,194.5-134.3,195.3-135.1,196.4"/>
					</g>
					<g id="g1284" transform="translate(426.9307,383.6113)">
						<path id="path1286" class="st28" d="M-142.7,195.8c-0.7-1.4-2.1-2.3-3.7-2.3v-3c2.8,0,5.3,1.7,6.5,4.1L-142.7,195.8z"/>
					</g>
					<g id="g1288" transform="translate(410.5713,387.4512)">
						<path id="path1290" class="st8" d="M-134.3,193.9c0,0.6,0.1,1.2,0.4,1.7l-2.8,1.3c-0.4-0.9-0.6-1.9-0.6-3c0-1.5,0.5-3,1.3-4.2
							l2.4,1.8C-134,192.1-134.3,193-134.3,193.9"/>
					</g>
					<g id="g1292" transform="translate(419.2031,396.083)">
						<path id="path1294" class="st19" d="M-138.7,189.4v3c-2.9,0-5.4-1.7-6.6-4.2l2.8-1.3C-141.9,188.3-140.5,189.4-138.7,189.4"/>
					</g>
					<g id="g1296" transform="translate(418.5205,337.9644)">
						<path id="path1298" class="st29" d="M-138.4,219.3c-2.3,0.2-4,2.2-3.9,4.5c0.1,0.6,0.3,1.3,0.6,1.8l-2.6,1.5
							c-0.5-0.9-0.9-1.9-1-3.1c-0.3-4,2.6-7.5,6.6-7.8L-138.4,219.3z"/>
					</g>
					<g id="g1300" transform="translate(426.6836,350.8687)">
						<path id="path1302" class="st17" d="M-142.6,212.7l2.6,1.6c-1.2,1.9-3.2,3.3-5.7,3.5l-0.3-3
							C-144.5,214.7-143.3,213.8-142.6,212.7"/>
					</g>
					<g id="g1304" transform="translate(411.8027,351.0083)">
						<path id="path1306" class="st4" d="M-134.9,212.6c0.8,1.3,2.3,2.1,3.9,2l0.3,3c-2.8,0.2-5.4-1.2-6.8-3.5L-134.9,212.6z"/>
					</g>
					<g id="g1308" transform="translate(427.8076,345.8877)">
						<path id="path1310" class="st8" d="M-143.1,215.2c-0.1-0.6-0.2-1.2-0.5-1.7l2.6-1.5c0.5,0.9,0.8,1.9,0.9,3
							c0.1,1.5-0.3,3-1,4.2l-2.6-1.6C-143.3,217-143.1,216.1-143.1,215.2"/>
					</g>
					<g id="g1312" transform="translate(418.5205,337.9644)">
						<path id="path1314" class="st19" d="M-138.4,219.3l-0.3-3c2.9-0.3,5.5,1.3,6.9,3.7l-2.6,1.5
							C-135.1,220.1-136.7,219.2-138.4,219.3"/>
					</g>
					<g id="g1316" transform="translate(67.6665,183.6797)">
						<path id="path1318" class="st30" d="M42.6,298.9h276.8"/>
					</g>
					<g id="g1320" transform="translate(337.5225,192.1113)">
						<path id="path1322" class="st6" d="M-96.6,294.6l-2.8-0.6l-4.6,20l2.8,0.6L-96.6,294.6z"/>
					</g>
					<g id="g1324" transform="translate(337.5225,192.1113)">
						<path id="path1326" class="st23" d="M-96.6,294.6l-2.8-0.6l-4.6,20l2.8,0.6L-96.6,294.6z"/>
					</g>
					<g id="g1328" transform="translate(327.8882,233.4453)">
						<path id="path1330" class="st2" d="M-91.6,273.2l-2.2,3.1l-0.6-3.7L-91.6,273.2z"/>
					</g>
					<g id="g1332" transform="translate(327.8882,233.4453)">
						<path id="path1334" class="st23" d="M-91.6,273.2l-2.2,3.1l-0.6-3.7L-91.6,273.2z"/>
					</g>
					<g id="g1336" transform="translate(325.4585,236.8867)">
						<path id="path1338" class="st5" d="M-90.4,271.5l-1,1.4l-0.3-1.7L-90.4,271.5z"/>
					</g>
					<g id="g1340" transform="translate(325.4585,236.8867)">
						<path id="path1342" class="st23" d="M-90.4,271.5l-1,1.4l-0.3-1.7L-90.4,271.5z"/>
					</g>
					<path id="path1344" class="st30" d="M248.8,482.6h-16.7v16.3h16.7V482.6z"/>
					<g id="g1346" transform="translate(336.4824,183.6797)">
						<path id="path1348" class="st31" d="M-96.1,298.9h8.4v16.3h-3.9"/>
					</g>
					<path id="path1350" class="st23" d="M207.2,482.6h-25.9v7.9h25.9V482.6z"/>
					<path id="path1352" class="st31" d="M207.2,482.6H226v7.9h-18.9V482.6z"/>
					<g id="g1354" transform="translate(214.2432,186.9277)">
						<path id="path1356" class="st30" d="M-33,297.2h25.9"/>
					</g>
					<g id="g1358" transform="translate(214.2432,190.1758)">
						<path id="path1360" class="st30" d="M-33,295.6h25.9"/>
					</g>
					<g id="g1362" transform="translate(214.2432,193.4248)">
						<path id="path1364" class="st23" d="M-33,293.9h25.9"/>
					</g>
					<g id="g1366" transform="translate(214.2432,196.6729)">
						<path id="path1368" class="st30" d="M-33,292.2h25.9"/>
					</g>
					<g id="g1370" transform="translate(267.7344,186.9277)">
						<path id="path1372" class="st30" d="M-60.6,297.2h4.5"/>
					</g>
					<g id="g1374" transform="translate(281.2065,193.4248)">
						<path id="path1376" class="st30" d="M-67.5,293.9h12.3"/>
					</g>
					<g id="g1378" transform="translate(267.7344,196.6729)">
						<path id="path1380" class="st23" d="M-60.6,292.2h2.9"/>
					</g>
					<g id="g1382" transform="translate(293.4897,196.6729)">
						<path id="path1384" class="st30" d="M-73.9,292.2h6.4"/>
					</g>
					<g id="g1386" transform="translate(288.9331,186.9277)">
						<path id="path1388" class="st23" d="M-71.5,297.2h8.6"/>
					</g>
					<g id="g1390" transform="translate(393.7402,191.3809)">
						<path id="path1392" class="st6" d="M-125.6,294.9h-0.4c-7.5,0-7.1-3.6-3.1-3.6h14l-7.1,3.6H-125.6z"/>
					</g>
					<g id="g1394" transform="translate(393.7402,191.3809)">
						<path id="path1396" class="st23" d="M-125.6,294.9h-0.4c-7.5,0-7.1-3.6-3.1-3.6h14l-7.1,3.6H-125.6z"/>
					</g>
					<g id="g1398" transform="translate(393.1104,191.3809)">
						<path id="path1400" class="st2" d="M-125.2,294.9c4.6,0,5.2-3.6,9.3-3.6c4.1,0,3.2,3.6-4.2,3.6H-125.2z"/>
					</g>
					<g id="g1402" transform="translate(393.1104,191.3809)">
						<path id="path1404" class="st23" d="M-125.2,294.9c4.6,0,5.2-3.6,9.3-3.6c4.1,0,3.2,3.6-4.2,3.6H-125.2z"/>
					</g>
					<path id="path1406" class="st4" d="M233.3,518.4H133v57h100.3V518.4z"/>
					<g id="g1408" transform="translate(556.7275,206.1104)">
						<path id="path1410" class="st19" d="M-209.7,287.4l6.8,40.9c1.7,6.7-2.6,18.9-11.5,18.9H-251c-5-17-13.5-21.8-5.8-37.5
							c5.8-11.8,4.1-28.6,4.1-28.6"/>
					</g>
					<g id="g1412" transform="translate(517.5967,319.4058)">
						<path id="path1414" class="st13" d="M-189.5,228.9c8.4,0,9.4,4.9,9.4,4.9s-4-0.1-4.3,3.6c-0.2,2.6-2.4,11.8-2.4,11.8H-200
							c0,0,1.4-9,1.1-11.6c-0.3-3.7-4.3-3.9-4.3-3.9C-203.3,233.8-197.9,228.9-189.5,228.9"/>
					</g>
					<g id="g1416" transform="translate(506.8271,351.9355)">
						<path id="path1418" class="st32" d="M-183.9,212.2c3.7,1.3,6.5,4.6,6.5,4.6l-0.5,8l-13.5-4.1c0,0-0.3-4.1-0.5-6.2
							c-0.1-1.1-0.5-1.8-0.8-2.4C-192.7,212-189.5,210.2-183.9,212.2"/>
					</g>
					<g id="g1420" transform="translate(495.9492,417.3457)">
						<path id="path1422" class="st13" d="M-178.3,178.4c7.3,0.7,13.1-3.5,13.9-11.6c0.2-2-1.3-4.8-1.3-5.1c-0.5-5-1.7-6.4-4.6-8.9
							c-3.1-2.6-7-4.7-10.4-4.2c-4.6,0.6-4.4,9.3-4.4,9.3s-1.4,0.8-1.6,1.7c-0.2,0.7,0.4,0.8,1,1.7c1.2,1.7,1,2.7,1.3,5.6
							C-183.7,173.8-184.7,177.7-178.3,178.4"/>
					</g>
					<g id="g1424" transform="translate(475.3906,401.3931)">
						<path id="path1426" class="st33" d="M-167.7,186.6c1.9-1.4,8.6-1.1,11.2,2.8c6.6,9.6,12.5,1.9,12.5,1.9s7.2,3.9-3.3,7.4
							C-169.2,206-172.6,190.3-167.7,186.6"/>
					</g>
					<g id="g1428" transform="translate(562.8691,346.2178)">
						<path id="path1430" class="st33" d="M-212.8,215.1c0,4.4-4.4,8.2-5.2,11.7c-1,5.3,2.2,9.1-2.1,15.3c-3,4.2-4.7,3-5.7,5.2
							c-2.3,5.2-10.8,7-10.8,7c-4.6,0-7,0.6-9.3-4.5c-1-2.2,1.7-3.4-1.3-7.7c-4.3-6.2-1.7-10-2.7-15.3c-0.7-3.5-4.9-7.2-4.9-11.7"/>
					</g>
					<g id="g1432" transform="translate(425.8848,19.3496)">
						<path id="path1434" class="st33" d="M-142.2,383.7c2.1,14.6,1.2,44.9,1.2,44.9s28.6-6.1,53.3-6.1c11.4,0,14.7,11.9,14.7,19.4
							c0.1,12.8-8.5,31.2-8.5,31.2l-23.9-5.3l-3.3-14.9l-44.9-0.3c-7.5,0-9.6-4.9-9.6-9.1l1.7-59.9L-142.2,383.7z"/>
					</g>
					<g id="g1436" transform="translate(338.4937,19.9932)">
						<path id="path1438" class="st5" d="M-97.1,383.3l-11.3,59.5c0,4.2,2.1,9.1,9.6,9.1l61.1,0.3l3.3,14.9l23.9,5.3
							c0,0,8.5-18.4,8.5-31.2c0-7.5-3.3-19.6-14.7-19.6c-24.7,0-69.5,6.2-69.5,6.2s7.2-13.1,7.2-44.9"/>
					</g>
					<g id="g1440" transform="translate(614.0146,310.2422)">
						<path id="path1442" class="st2" d="M-239.2,233.7c2.3,0,3.9-2,3.5-4.2l-5.9-33.5c-2.1-12.1-3.2-24.3-3.2-36.6V137
							c0-3.3-2.8-6.1-6.1-6.1H-308v27.6c0,12.9,1.2,25.8,3.5,38.5l6.2,33.6l3.7,3.1h5.3L-239.2,233.7z"/>
					</g>
					<g id="g1444" transform="translate(614.0146,310.2422)">
						<path id="path1446" class="st23" d="M-239.2,233.7c2.3,0,3.9-2,3.5-4.2l-5.9-33.5c-2.1-12.1-3.2-24.3-3.2-36.6V137
							c0-3.3-2.8-6.1-6.1-6.1H-308v27.6c0,12.9,1.2,25.8,3.5,38.5l6.2,33.6l3.7,3.1h5.3L-239.2,233.7z"/>
					</g>
					<g id="g1448" transform="translate(529.8477,98.0391)">
						<path id="path1450" class="st31" d="M-195.8,343.1h29.1c3.3,0,6.1,2.8,6.1,6.1v22.3c0,12.2,1.1,24.5,3.2,36.6l5.9,33.5
							c0.4,2.2-1.3,4.2-3.5,4.2h-6.6"/>
					</g>
					<g id="g1452" transform="translate(335.9453,323.8423)">
						<path id="path1454" class="st19" d="M-95.8,226.6l15.8-43.1c0.3-0.8,0.6-1.4,1.2-2.1c0.1-0.1,0.1-0.2,0.2-0.3
							c3.1-3.5,8.3-4.1,12.2-1.4l30.2,25.8c3,2.1,15.9,23.9,6.1,23.9s-13.5-5.3-17.1-9l-22.3-24l-21.9,35.8L-95.8,226.6z"/>
					</g>
					<g id="g1456" transform="translate(452.9326,275.4268)">
						<path id="path1458" class="st32" d="M-156.1,251.6l8.8,7.6l-7.6-14.4"/>
					</g>
					<g id="g1460" transform="translate(324.8066,352.271)">
						<path id="path1462" class="st34" d="M-90,212l-3.2,3.2L-98,216"/>
					</g>
					<g id="g1464" transform="translate(321.6714,348.7471)">
						<path id="path1466" class="st34" d="M-88.4,213.8l-5,0.8l-4.4-0.9"/>
					</g>
					<g id="g1468" transform="translate(321.6714,343.3345)">
						<path id="path1470" class="st34" d="M-88.4,216.6l-6.4,1.4h-3.3"/>
					</g>
					<g id="g1472" transform="translate(317.3291,339.4834)">
						<path id="path1474" class="st34" d="M-86.2,218.5l-4.5,1.3l-2.7,0.5"/>
					</g>
					<g id="g1476" transform="translate(344.9668,335.3975)">
						<path id="path1478" class="st13" d="M-100.4,220.6l-9.4,9.4l-5.1-8.2l10.1-6.8c1.6-0.9,3.7-0.4,4.7,1.1
							C-99.1,217.6-99.3,219.4-100.4,220.6"/>
					</g>
					<g id="g1480" transform="translate(499.5254,310.2422)">
						<path id="path1482" class="st2" d="M-180.1,233.7L-180.1,233.7c-1.8,0-3.3-1.3-3.7-3.1L-190,197c-2.3-12.7-3.5-25.6-3.5-38.5
							v-17.4c0-1.6-1.3-2.9-2.9-2.9H-245c-2,0-3.7-1.6-3.7-3.7c0-2,1.6-3.7,3.7-3.7h51.5h1.4c3.5,0,6.2,2.8,6.2,6.2v1.9v19.4
							c0,12.9,1.2,25.8,3.5,38.5l5.9,32.3C-176,231.5-177.8,233.7-180.1,233.7"/>
					</g>
					<g id="g1484" transform="translate(499.5254,310.2422)">
						<path id="path1486" class="st23" d="M-180.1,233.7L-180.1,233.7c-1.8,0-3.3-1.3-3.7-3.1L-190,197c-2.3-12.7-3.5-25.6-3.5-38.5
							v-17.4c0-1.6-1.3-2.9-2.9-2.9H-245c-2,0-3.7-1.6-3.7-3.7c0-2,1.6-3.7,3.7-3.7h51.5h1.4c3.5,0,6.2,2.8,6.2,6.2v1.9v19.4
							c0,12.9,1.2,25.8,3.5,38.5l5.9,32.3C-176,231.5-177.8,233.7-180.1,233.7z"/>
					</g>
					<g id="g1488" transform="translate(176.6396,326.644)">
						<path id="path1490" class="st2" d="M-13.6,225.2v3.7h1.5c1,0,1.5-0.6,1.5-1.4v-1c0-0.8-0.6-1.4-1.5-1.4L-13.6,225.2
							L-13.6,225.2z M-11.3,227.6c0,0.5-0.3,0.6-0.8,0.6h-0.8v-2.3h0.8c0.5,0,0.8,0.3,0.8,0.6V227.6z"/>
					</g>
					<g id="g1492" transform="translate(188.0024,326.5342)">
						<path id="path1494" class="st2" d="M-19.5,225.2c-1,0-1.5,0.6-1.5,1.4v1.1c0,0.8,0.6,1.4,1.5,1.4s1.5-0.6,1.5-1.4v-1.1
							C-17.9,225.8-18.5,225.2-19.5,225.2 M-18.7,227.7c0,0.5-0.3,0.6-0.8,0.6c-0.5,0-0.8-0.3-0.8-0.6v-1.1c0-0.5,0.3-0.6,0.8-0.6
							c0.5,0,0.8,0.3,0.8,0.6V227.7z"/>
					</g>
					<g id="g1496" transform="translate(197.376,330.9727)">
						<path id="path1498" class="st2" d="M-24.3,222.9l-0.6-2.1h-0.8l-0.8,3.7h0.8l0.5-2.5l0.8,2.5h0.5l0.8-2.5l0.5,2.5h0.8
							l-0.8-3.7h-0.8L-24.3,222.9z"/>
					</g>
					<g id="g1500" transform="translate(210.5713,334.373)">
						<path id="path1502" class="st2" d="M-31.1,221.2h0.8v-2.7c0-0.8-0.5-1.1-1.2-1.1c-0.8,0-1.2,0.4-1.2,1.1h0.8
							c0-0.3,0.2-0.4,0.5-0.4c0.3,0,0.5,0.2,0.5,0.5L-31.1,221.2L-31.1,221.2z"/>
					</g>
					<g id="g1504" transform="translate(217.3403,326.5342)">
						<path id="path1506" class="st2" d="M-34.6,225.2c-1,0-1.5,0.6-1.5,1.4v1.1c0,0.8,0.6,1.4,1.5,1.4c1,0,1.5-0.6,1.5-1.4v-1.1
							C-33.1,225.8-33.7,225.2-34.6,225.2 M-33.9,227.7c0,0.5-0.3,0.6-0.8,0.6c-0.5,0-0.8-0.3-0.8-0.6v-1.1c0-0.5,0.3-0.6,0.8-0.6
							c0.5,0,0.8,0.3,0.8,0.6V227.7z"/>
					</g>
					<g id="g1508" transform="translate(228.8657,326.644)">
						<path id="path1510" class="st2" d="M-40.6,225.2h-0.8l-1.5,2.4v-2.4h-0.8v3.7h0.8l1.5-2.4v2.4h0.8V225.2z"/>
					</g>
					<g id="g1512" transform="translate(232.6221,331.2817)">
						<path id="path1514" class="st2" d="M-42.5,222.8h1.5v-0.7h-1.5v-0.8h1.7v-0.7h-2.5v3.7h2.5v-0.7h-1.7V222.8z"/>
					</g>
					<g id="g1516" transform="translate(237.8423,329.0845)">
						<path id="path1518" class="st2" d="M-45.2,223.9h0.8c0.1-0.3,0.3-0.5,0.7-0.5c0.3,0,0.6,0.1,0.6,0.4c0,0.2-0.1,0.3-0.5,0.4
							l-0.7,0.2c-0.6,0.1-1,0.6-1,1.1c0,0.8,0.6,1.1,1.4,1.1c0.8,0,1.4-0.5,1.4-1.1h-0.8c-0.1,0.3-0.4,0.4-0.6,0.4
							c-0.3,0-0.6-0.1-0.6-0.4c0-0.2,0.2-0.3,0.4-0.4l0.6-0.2c0.6-0.1,1-0.5,1-1.2s-0.5-1.1-1.4-1.1
							C-44.6,222.7-45.1,223.2-45.2,223.9"/>
					</g>
					<g id="g1520" transform="translate(187.7187,303.4292)">
						<path id="path1522" class="st2" d="M-19.4,237.2h-1.1l-3.1,5.3v-5.3h-1.2v7.5h1.2l3.1-5.3v5.3h1.2L-19.4,237.2L-19.4,237.2z"
							/>
					</g>
					<g id="g1524" transform="translate(194.3447,312.3579)">
						<path id="path1526" class="st2" d="M-22.8,232.6h3.3v-1.2h-3.3v-2.1h3.3v-1.2h-4.4v7.5h4.4v-1.2h-3.3V232.6z"/>
					</g>
					<g id="g1528" transform="translate(212.0952,313.1279)">
						<path id="path1530" class="st2" d="M-31.9,232.2l-1.3-4.7h-1.1l-1.4,7.5h1.1l1-5.2l1.2,4.2h1.1l1.2-4.2l1,5.2h1.1l-1.4-7.5
							h-1.1L-31.9,232.2z"/>
					</g>
					<g id="g1532" transform="translate(222.4053,308.2017)">
						<path id="path1534" class="st2" d="M-37.3,234.7h1.2c0.1-0.8,0.7-1.3,1.6-1.3c0.8,0,1.3,0.4,1.3,1s-0.3,0.9-1,1.1l-1.4,0.3
							c-1,0.3-1.5,1-1.5,2.1c0,1.4,1.1,2.1,2.4,2.1c1.5,0,2.4-0.8,2.6-2.1h-1.2c-0.1,0.6-0.6,1-1.4,1c-0.9,0-1.3-0.4-1.3-1
							s0.3-0.9,0.8-1l1.3-0.3c1.2-0.3,1.8-1,1.8-2.2s-0.9-2.1-2.4-2.1C-36.2,232.3-37.1,233.3-37.3,234.7"/>
					</g>
					<g id="g1536" transform="translate(243.4434,313.1279)">
						<path id="path1538" class="st2" d="M-48.1,232.2l-1.3-4.7h-1.1l-1.4,7.5h1.1l1-5.2l1.2,4.2h1.1l1.2-4.2l1,5.2h1.1l-1.4-7.5
							h-1.1L-48.1,232.2z"/>
					</g>
					<path id="path1540" class="st2" d="M201.9,540.6h-1.2v7.5h1.2V540.6z"/>
					<g id="g1542" transform="translate(267.2832,316.4927)">
						<path id="path1544" class="st2" d="M-60.4,230.4h-1.8v-2h1.8c0.7,0,1.2,0.4,1.2,1S-59.7,230.4-60.4,230.4 M-62.2,227.3v-3.2
							h-1.2v7.5h2.9c1.5,0,2.3-0.8,2.3-2.1c0-1.1-0.6-1.9-1.7-2.1l1.9-3.3h-1.3l-1.9,3.2H-62.2z"/>
					</g>
					<g id="g1546" transform="translate(278.3623,312.3579)">
						<path id="path1548" class="st2" d="M-66.1,232.6h3.3v-1.2h-3.3v-2.1h3.3v-1.2h-4.4v7.5h4.4v-1.2h-3.3V232.6z"/>
					</g>
					<g id="g1550" transform="translate(288.2441,308.2017)">
						<path id="path1552" class="st2" d="M-71.2,234.7h1.2c0.1-0.8,0.7-1.3,1.6-1.3c0.8,0,1.3,0.4,1.3,1s-0.3,0.9-1,1.1l-1.4,0.3
							c-1,0.3-1.5,1-1.5,2.1c0,1.4,1.1,2.1,2.4,2.1c1.5,0,2.4-0.8,2.6-2.1h-1.2c-0.1,0.6-0.6,1-1.4,1c-0.9,0-1.3-0.4-1.3-1
							s0.3-0.9,0.8-1l1.3-0.3c1.2-0.3,1.8-1,1.8-2.2s-0.9-2.1-2.4-2.1C-70.2,232.3-71.1,233.3-71.2,234.7"/>
					</g>
					<g id="g1554" transform="translate(158.5913,324.1626)">
						<path id="path1556" class="st2" d="M-4.3,226.4c0,0.3-0.1,0.5-0.1,0.6c-0.3,1.1-1.3,1.9-2.4,1.9h-5v-10h2.5v-2.5h-5v15h7.5
							c2.5,0,4.6-1.9,5-4.2c0.1-0.3,0.1-0.5,0.1-0.8H-4.3z"/>
					</g>
					<g id="g1558" transform="translate(163.7476,320.3008)">
						<path id="path1560" class="st2" d="M-7,228.5v-3.1c0-2.8-2.3-5-5.1-5h-0.5v2.5h0.5c1.4,0,2.6,1.2,2.6,2.6v3.1L-7,228.5
							L-7,228.5z"/>
					</g>
				</g>
			</g>
		</g>
	</g>
</g>
</svg>
